<?xml version="1.0" encoding="UTF-8" standalone="no"?>
<!DOCTYPE svg PUBLIC "-//W3C//DTD SVG 1.1//EN"
 "http://www.w3.org/Graphics/SVG/1.1/DTD/svg11.dtd">
<!-- Generated by graphviz version 2.43.0 (0)
 -->
<!-- Title: NexObjeto Pages: 1 -->
<svg width="372pt" height="522pt"
 viewBox="0.00 0.00 372.00 522.00" xmlns="http://www.w3.org/2000/svg" xmlns:xlink="http://www.w3.org/1999/xlink">
<g id="graph0" class="graph" transform="scale(1 1) rotate(0) translate(4 518)">
<title>NexObjeto</title>
<polygon fill="white" stroke="transparent" points="-4,4 -4,-518 368,-518 368,4 -4,4"/>
<!-- Node1 -->
<g id="node1" class="node">
<title>Node1</title>
<g id="a_node1"><a xlink:title="Classe base de todos os componentes Nextion.">
<polygon fill="#bfbfbf" stroke="black" points="0,-304.5 0,-323.5 68,-323.5 68,-304.5 0,-304.5"/>
<text text-anchor="middle" x="34" y="-311.5" font-family="Helvetica,sans-Serif" font-size="10.00">NexObjeto</text>
</a>
</g>
</g>
<!-- Node2 -->
<g id="node2" class="node">
<title>Node2</title>
<g id="a_node2"><a xlink:href="classNexBarraProgresso.html" target="_top" xlink:title="Componente barra de progresso do Nextion.">
<polygon fill="white" stroke="black" points="104,-361.5 104,-380.5 214,-380.5 214,-361.5 104,-361.5"/>
<text text-anchor="middle" x="159" y="-368.5" font-family="Helvetica,sans-Serif" font-size="10.00">NexBarraProgresso</text>
</a>
</g>
</g>
<!-- Node1&#45;&gt;Node2 -->
<g id="edge1" class="edge">
<title>Node1&#45;&gt;Node2</title>
<path fill="none" stroke="midnightblue" d="M59.31,-328.67C72.3,-336.19 88.73,-345.17 104,-352 111.62,-355.41 120.05,-358.63 127.95,-361.41"/>
<polygon fill="midnightblue" stroke="midnightblue" points="60.91,-325.56 50.52,-323.51 57.37,-331.6 60.91,-325.56"/>
</g>
<!-- Node3 -->
<g id="node3" class="node">
<title>Node3</title>
<g id="a_node3"><a xlink:href="classNexGauge.html" target="_top" xlink:title="Componente gauge (mostrador circular) do Nextion.">
<polygon fill="white" stroke="black" points="125,-323.5 125,-342.5 193,-342.5 193,-323.5 125,-323.5"/>
<text text-anchor="middle" x="159" y="-330.5" font-family="Helvetica,sans-Serif" font-size="10.00">NexGauge</text>
</a>
</g>
</g>
<!-- Node1&#45;&gt;Node3 -->
<g id="edge2" class="edge">
<title>Node1&#45;&gt;Node3</title>
<path fill="none" stroke="midnightblue" d="M78.49,-320.72C93.67,-323.06 110.46,-325.66 124.69,-327.85"/>
<polygon fill="midnightblue" stroke="midnightblue" points="78.7,-317.21 68.29,-319.14 77.63,-324.13 78.7,-317.21"/>
</g>
<!-- Node4 -->
<g id="node4" class="node">
<title>Node4</title>
<g id="a_node4"><a xlink:href="classNexGrafico.html" target="_top" xlink:title="Componente de gráfico do Nextion.">
<polygon fill="white" stroke="black" points="123.5,-285.5 123.5,-304.5 194.5,-304.5 194.5,-285.5 123.5,-285.5"/>
<text text-anchor="middle" x="159" y="-292.5" font-family="Helvetica,sans-Serif" font-size="10.00">NexGrafico</text>
</a>
</g>
</g>
<!-- Node1&#45;&gt;Node4 -->
<g id="edge3" class="edge">
<title>Node1&#45;&gt;Node4</title>
<path fill="none" stroke="midnightblue" d="M78.23,-307.32C93.03,-305.04 109.38,-302.51 123.4,-300.34"/>
<polygon fill="midnightblue" stroke="midnightblue" points="77.63,-303.87 68.29,-308.86 78.7,-310.79 77.63,-303.87"/>
</g>
<!-- Node5 -->
<g id="node5" class="node">
<title>Node5</title>
<g id="a_node5"><a xlink:href="classNexToque.html" target="_top" xlink:title="Classe base para componentes com eventos de toque.">
<polygon fill="white" stroke="black" points="126.5,-247.5 126.5,-266.5 191.5,-266.5 191.5,-247.5 126.5,-247.5"/>
<text text-anchor="middle" x="159" y="-254.5" font-family="Helvetica,sans-Serif" font-size="10.00">NexToque</text>
</a>
</g>
</g>
<!-- Node1&#45;&gt;Node5 -->
<g id="edge4" class="edge">
<title>Node1&#45;&gt;Node5</title>
<path fill="none" stroke="midnightblue" d="M59.31,-299.33C72.3,-291.81 88.73,-282.83 104,-276 111.62,-272.59 120.05,-269.37 127.95,-266.59"/>
<polygon fill="midnightblue" stroke="midnightblue" points="57.37,-296.4 50.52,-304.49 60.91,-302.44 57.37,-296.4"/>
</g>
<!-- Node6 -->
<g id="node6" class="node">
<title>Node6</title>
<g id="a_node6"><a xlink:href="classNexBotao.html" target="_top" xlink:title="Componente botão do Nextion.">
<polygon fill="white" stroke="black" points="274.5,-494.5 274.5,-513.5 339.5,-513.5 339.5,-494.5 274.5,-494.5"/>
<text text-anchor="middle" x="307" y="-501.5" font-family="Helvetica,sans-Serif" font-size="10.00">NexBotao</text>
</a>
</g>
</g>
<!-- Node5&#45;&gt;Node6 -->
<g id="edge5" class="edge">
<title>Node5&#45;&gt;Node6</title>
<path fill="none" stroke="midnightblue" d="M200.9,-265.94C205.87,-268.49 210.43,-271.78 214,-276 274.83,-348 188.77,-413.34 250,-485 256.2,-492.26 265.29,-496.75 274.35,-499.53"/>
<polygon fill="midnightblue" stroke="midnightblue" points="202.25,-262.71 191.67,-262.08 199.55,-269.17 202.25,-262.71"/>
</g>
<!-- Node7 -->
<g id="node7" class="node">
<title>Node7</title>
<g id="a_node7"><a xlink:href="classNexBotaoDuplo.html" target="_top" xlink:title="Componente botão de dois estados (toggle) do Nextion.">
<polygon fill="white" stroke="black" points="260.5,-456.5 260.5,-475.5 353.5,-475.5 353.5,-456.5 260.5,-456.5"/>
<text text-anchor="middle" x="307" y="-463.5" font-family="Helvetica,sans-Serif" font-size="10.00">NexBotaoDuplo</text>
</a>
</g>
</g>
<!-- Node5&#45;&gt;Node7 -->
<g id="edge6" class="edge">
<title>Node5&#45;&gt;Node7</title>
<path fill="none" stroke="midnightblue" d="M200.76,-266.06C205.74,-268.6 210.35,-271.84 214,-276 265.21,-334.39 198.46,-388.9 250,-447 253.47,-450.92 257.79,-454.03 262.47,-456.5"/>
<polygon fill="midnightblue" stroke="midnightblue" points="202.09,-262.82 191.51,-262.22 199.4,-269.29 202.09,-262.82"/>
</g>
<!-- Node8 -->
<g id="node8" class="node">
<title>Node8</title>
<g id="a_node8"><a xlink:href="classNexCheckbox.html" target="_top" xlink:title="Componente checkbox do Nextion.">
<polygon fill="white" stroke="black" points="265,-418.5 265,-437.5 349,-437.5 349,-418.5 265,-418.5"/>
<text text-anchor="middle" x="307" y="-425.5" font-family="Helvetica,sans-Serif" font-size="10.00">NexCheckbox</text>
</a>
</g>
</g>
<!-- Node5&#45;&gt;Node8 -->
<g id="edge7" class="edge">
<title>Node5&#45;&gt;Node8</title>
<path fill="none" stroke="midnightblue" d="M201.09,-266.53C205.9,-268.99 210.37,-272.09 214,-276 255.67,-320.87 208.08,-364.36 250,-409 254.15,-413.42 259.36,-416.8 264.92,-419.41"/>
<polygon fill="midnightblue" stroke="midnightblue" points="202.13,-263.17 191.56,-262.53 199.42,-269.62 202.13,-263.17"/>
</g>
<!-- Node9 -->
<g id="node9" class="node">
<title>Node9</title>
<g id="a_node9"><a xlink:href="classNexCrop.html" target="_top" xlink:title="Componente de imagem com recorte do Nextion.">
<polygon fill="white" stroke="black" points="277.5,-380.5 277.5,-399.5 336.5,-399.5 336.5,-380.5 277.5,-380.5"/>
<text text-anchor="middle" x="307" y="-387.5" font-family="Helvetica,sans-Serif" font-size="10.00">NexCrop</text>
</a>
</g>
</g>
<!-- Node5&#45;&gt;Node9 -->
<g id="edge8" class="edge">
<title>Node5&#45;&gt;Node9</title>
<path fill="none" stroke="midnightblue" d="M201.07,-267.03C205.81,-269.42 210.27,-272.36 214,-276 246.31,-307.54 217.52,-339.64 250,-371 257.46,-378.2 267.75,-382.68 277.48,-385.46"/>
<polygon fill="midnightblue" stroke="midnightblue" points="202.3,-263.75 191.72,-263.11 199.59,-270.21 202.3,-263.75"/>
</g>
<!-- Node10 -->
<g id="node10" class="node">
<title>Node10</title>
<g id="a_node10"><a xlink:href="classNexHotspot.html" target="_top" xlink:title="Área de toque invisível do Nextion.">
<polygon fill="white" stroke="black" points="270,-342.5 270,-361.5 344,-361.5 344,-342.5 270,-342.5"/>
<text text-anchor="middle" x="307" y="-349.5" font-family="Helvetica,sans-Serif" font-size="10.00">NexHotspot</text>
</a>
</g>
</g>
<!-- Node5&#45;&gt;Node10 -->
<g id="edge9" class="edge">
<title>Node5&#45;&gt;Node10</title>
<path fill="none" stroke="midnightblue" d="M201.11,-268.11C205.71,-270.3 210.12,-272.91 214,-276 237.43,-294.67 226.46,-314.46 250,-333 255.81,-337.57 262.78,-341.08 269.8,-343.75"/>
<polygon fill="midnightblue" stroke="midnightblue" points="202.11,-264.74 191.53,-264.16 199.44,-271.21 202.11,-264.74"/>
</g>
<!-- Node11 -->
<g id="node11" class="node">
<title>Node11</title>
<g id="a_node11"><a xlink:href="classNexImagem.html" target="_top" xlink:title="Componente de imagem do Nextion.">
<polygon fill="white" stroke="black" points="268.5,-304.5 268.5,-323.5 345.5,-323.5 345.5,-304.5 268.5,-304.5"/>
<text text-anchor="middle" x="307" y="-311.5" font-family="Helvetica,sans-Serif" font-size="10.00">NexImagem</text>
</a>
</g>
</g>
<!-- Node5&#45;&gt;Node11 -->
<g id="edge10" class="edge">
<title>Node5&#45;&gt;Node11</title>
<path fill="none" stroke="midnightblue" d="M199.26,-270.05C204.26,-271.93 209.28,-273.94 214,-276 230.58,-283.24 233.38,-287.85 250,-295 257.92,-298.41 266.67,-301.63 274.86,-304.41"/>
<polygon fill="midnightblue" stroke="midnightblue" points="200.33,-266.71 189.73,-266.58 197.93,-273.29 200.33,-266.71"/>
</g>
<!-- Node12 -->
<g id="node12" class="node">
<title>Node12</title>
<g id="a_node12"><a xlink:href="classNexNumero.html" target="_top" xlink:title="Componente de número do Nextion.">
<polygon fill="white" stroke="black" points="269.5,-266.5 269.5,-285.5 344.5,-285.5 344.5,-266.5 269.5,-266.5"/>
<text text-anchor="middle" x="307" y="-273.5" font-family="Helvetica,sans-Serif" font-size="10.00">NexNumero</text>
</a>
</g>
</g>
<!-- Node5&#45;&gt;Node12 -->
<g id="edge11" class="edge">
<title>Node5&#45;&gt;Node12</title>
<path fill="none" stroke="midnightblue" d="M201.78,-262.44C223.15,-265.22 248.92,-268.57 269.49,-271.25"/>
<polygon fill="midnightblue" stroke="midnightblue" points="202.05,-258.94 191.68,-261.12 201.14,-265.88 202.05,-258.94"/>
</g>
<!-- Node13 -->
<g id="node13" class="node">
<title>Node13</title>
<g id="a_node13"><a xlink:href="classNexPagina.html" target="_top" xlink:title="Representa uma página do display Nextion.">
<polygon fill="white" stroke="black" points="273,-228.5 273,-247.5 341,-247.5 341,-228.5 273,-228.5"/>
<text text-anchor="middle" x="307" y="-235.5" font-family="Helvetica,sans-Serif" font-size="10.00">NexPagina</text>
</a>
</g>
</g>
<!-- Node5&#45;&gt;Node13 -->
<g id="edge12" class="edge">
<title>Node5&#45;&gt;Node13</title>
<path fill="none" stroke="midnightblue" d="M201.67,-251.58C224.24,-248.64 251.76,-245.06 272.86,-242.31"/>
<polygon fill="midnightblue" stroke="midnightblue" points="201.14,-248.12 191.68,-252.88 202.05,-255.06 201.14,-248.12"/>
</g>
<!-- Node14 -->
<g id="node14" class="node">
<title>Node14</title>
<g id="a_node14"><a xlink:href="classNexRadio.html" target="_top" xlink:title="Componente radio button do Nextion.">
<polygon fill="white" stroke="black" points="275,-190.5 275,-209.5 339,-209.5 339,-190.5 275,-190.5"/>
<text text-anchor="middle" x="307" y="-197.5" font-family="Helvetica,sans-Serif" font-size="10.00">NexRadio</text>
</a>
</g>
</g>
<!-- Node5&#45;&gt;Node14 -->
<g id="edge13" class="edge">
<title>Node5&#45;&gt;Node14</title>
<path fill="none" stroke="midnightblue" d="M191.2,-243.17C208.42,-235.7 230.25,-226.51 250,-219 258.54,-215.75 267.91,-212.47 276.5,-209.56"/>
<polygon fill="midnightblue" stroke="midnightblue" points="189.41,-240.13 181.65,-247.34 192.21,-246.55 189.41,-240.13"/>
</g>
<!-- Node15 -->
<g id="node15" class="node">
<title>Node15</title>
<g id="a_node15"><a xlink:href="classNexSlider.html" target="_top" xlink:title="Componente slider do Nextion.">
<polygon fill="white" stroke="black" points="275,-152.5 275,-171.5 339,-171.5 339,-152.5 275,-152.5"/>
<text text-anchor="middle" x="307" y="-159.5" font-family="Helvetica,sans-Serif" font-size="10.00">NexSlider</text>
</a>
</g>
</g>
<!-- Node5&#45;&gt;Node15 -->
<g id="edge14" class="edge">
<title>Node5&#45;&gt;Node15</title>
<path fill="none" stroke="midnightblue" d="M176.51,-239.69C193.53,-222.71 221.54,-197.08 250,-181 257.69,-176.66 266.53,-173.09 274.88,-170.26"/>
<polygon fill="midnightblue" stroke="midnightblue" points="173.59,-237.67 169.08,-247.26 178.58,-242.57 173.59,-237.67"/>
</g>
<!-- Node16 -->
<g id="node16" class="node">
<title>Node16</title>
<g id="a_node16"><a xlink:href="classNexTexto.html" target="_top" xlink:title="Componente de texto do Nextion.">
<polygon fill="white" stroke="black" points="276,-114.5 276,-133.5 338,-133.5 338,-114.5 276,-114.5"/>
<text text-anchor="middle" x="307" y="-121.5" font-family="Helvetica,sans-Serif" font-size="10.00">NexTexto</text>
</a>
</g>
</g>
<!-- Node5&#45;&gt;Node16 -->
<g id="edge15" class="edge">
<title>Node5&#45;&gt;Node16</title>
<path fill="none" stroke="midnightblue" d="M170.11,-238.3C184.62,-213.17 213.63,-168.68 250,-143 257.72,-137.55 267.12,-133.57 276,-130.69"/>
<polygon fill="midnightblue" stroke="midnightblue" points="166.96,-236.76 165.12,-247.2 173.07,-240.19 166.96,-236.76"/>
</g>
<!-- Node17 -->
<g id="node17" class="node">
<title>Node17</title>
<g id="a_node17"><a xlink:href="classNexTextoDeslizante.html" target="_top" xlink:title="Componente de texto com rolagem automática do Nextion.">
<polygon fill="white" stroke="black" points="250,-76.5 250,-95.5 364,-95.5 364,-76.5 250,-76.5"/>
<text text-anchor="middle" x="307" y="-83.5" font-family="Helvetica,sans-Serif" font-size="10.00">NexTextoDeslizante</text>
</a>
</g>
</g>
<!-- Node5&#45;&gt;Node17 -->
<g id="edge16" class="edge">
<title>Node5&#45;&gt;Node17</title>
<path fill="none" stroke="midnightblue" d="M166.41,-237.64C178.01,-205.5 205.5,-141.11 250,-105 254.78,-101.12 260.4,-98.01 266.2,-95.53"/>
<polygon fill="midnightblue" stroke="midnightblue" points="163.06,-236.62 163.08,-247.21 169.67,-238.91 163.06,-236.62"/>
</g>
<!-- Node18 -->
<g id="node18" class="node">
<title>Node18</title>
<g id="a_node18"><a xlink:href="classNexTimer.html" target="_top" xlink:title="Componente timer do Nextion.">
<polygon fill="white" stroke="black" points="274.5,-38.5 274.5,-57.5 339.5,-57.5 339.5,-38.5 274.5,-38.5"/>
<text text-anchor="middle" x="307" y="-45.5" font-family="Helvetica,sans-Serif" font-size="10.00">NexTimer</text>
</a>
</g>
</g>
<!-- Node5&#45;&gt;Node18 -->
<g id="edge17" class="edge">
<title>Node5&#45;&gt;Node18</title>
<path fill="none" stroke="midnightblue" d="M163.99,-237.17C172.74,-198.81 197.17,-114.07 250,-67 256.82,-60.92 265.67,-56.77 274.31,-53.95"/>
<polygon fill="midnightblue" stroke="midnightblue" points="160.54,-236.58 161.85,-247.1 167.38,-238.06 160.54,-236.58"/>
</g>
<!-- Node19 -->
<g id="node19" class="node">
<title>Node19</title>
<g id="a_node19"><a xlink:href="classNexVariavel.html" target="_top" xlink:title="Variável interna do Nextion (sem representação visual).">
<polygon fill="white" stroke="black" points="269,-0.5 269,-19.5 345,-19.5 345,-0.5 269,-0.5"/>
<text text-anchor="middle" x="307" y="-7.5" font-family="Helvetica,sans-Serif" font-size="10.00">NexVariavel</text>
</a>
</g>
</g>
<!-- Node5&#45;&gt;Node19 -->
<g id="edge18" class="edge">
<title>Node5&#45;&gt;Node19</title>
<path fill="none" stroke="midnightblue" d="M162.22,-237.22C168.18,-193.44 188.48,-87.58 250,-29 255.28,-23.97 261.94,-20.27 268.8,-17.55"/>
<polygon fill="midnightblue" stroke="midnightblue" points="158.75,-236.81 160.97,-247.17 165.69,-237.68 158.75,-236.81"/>
</g>
</g>
</svg>
