<?xml version="1.0" encoding="UTF-8" standalone="no"?>
<!DOCTYPE svg PUBLIC "-//W3C//DTD SVG 1.1//EN"
 "http://www.w3.org/Graphics/SVG/1.1/DTD/svg11.dtd">
<!-- Generated by graphviz version 2.43.0 (0)
 -->
<!-- Title: NexToque Pages: 1 -->
<svg width="327pt" height="522pt"
 viewBox="0.00 0.00 327.00 522.00" xmlns="http://www.w3.org/2000/svg" xmlns:xlink="http://www.w3.org/1999/xlink">
<g id="graph0" class="graph" transform="scale(1 1) rotate(0) translate(4 518)">
<title>NexToque</title>
<polygon fill="white" stroke="transparent" points="-4,4 -4,-518 323,-518 323,4 -4,4"/>
<!-- Node1 -->
<g id="node1" class="node">
<title>Node1</title>
<g id="a_node1"><a xlink:title="Classe base para componentes com eventos de toque.">
<polygon fill="#bfbfbf" stroke="black" points="104,-247.5 104,-266.5 169,-266.5 169,-247.5 104,-247.5"/>
<text text-anchor="middle" x="136.5" y="-254.5" font-family="Helvetica,sans-Serif" font-size="10.00">NexToque</text>
</a>
</g>
</g>
<!-- Node3 -->
<g id="node3" class="node">
<title>Node3</title>
<g id="a_node3"><a xlink:href="classNexBotao.html" target="_top" xlink:title="Componente botão do Nextion.">
<polygon fill="white" stroke="black" points="229.5,-494.5 229.5,-513.5 294.5,-513.5 294.5,-494.5 229.5,-494.5"/>
<text text-anchor="middle" x="262" y="-501.5" font-family="Helvetica,sans-Serif" font-size="10.00">NexBotao</text>
</a>
</g>
</g>
<!-- Node1&#45;&gt;Node3 -->
<g id="edge2" class="edge">
<title>Node1&#45;&gt;Node3</title>
<path fill="none" stroke="midnightblue" d="M137.58,-276.94C138.84,-320.65 148.01,-425.72 205,-485 211.48,-491.73 220.42,-496.08 229.27,-498.89"/>
<polygon fill="midnightblue" stroke="midnightblue" points="141.07,-276.7 137.4,-266.77 134.07,-276.83 141.07,-276.7"/>
</g>
<!-- Node4 -->
<g id="node4" class="node">
<title>Node4</title>
<g id="a_node4"><a xlink:href="classNexBotaoDuplo.html" target="_top" xlink:title="Componente botão de dois estados (toggle) do Nextion.">
<polygon fill="white" stroke="black" points="215.5,-456.5 215.5,-475.5 308.5,-475.5 308.5,-456.5 215.5,-456.5"/>
<text text-anchor="middle" x="262" y="-463.5" font-family="Helvetica,sans-Serif" font-size="10.00">NexBotaoDuplo</text>
</a>
</g>
</g>
<!-- Node1&#45;&gt;Node4 -->
<g id="edge3" class="edge">
<title>Node1&#45;&gt;Node4</title>
<path fill="none" stroke="midnightblue" d="M139.01,-277.22C142.95,-315.64 156.88,-399.56 205,-447 208.95,-450.89 213.72,-453.99 218.8,-456.45"/>
<polygon fill="midnightblue" stroke="midnightblue" points="142.46,-276.5 138.08,-266.85 135.49,-277.12 142.46,-276.5"/>
</g>
<!-- Node5 -->
<g id="node5" class="node">
<title>Node5</title>
<g id="a_node5"><a xlink:href="classNexCheckbox.html" target="_top" xlink:title="Componente checkbox do Nextion.">
<polygon fill="white" stroke="black" points="220,-418.5 220,-437.5 304,-437.5 304,-418.5 220,-418.5"/>
<text text-anchor="middle" x="262" y="-425.5" font-family="Helvetica,sans-Serif" font-size="10.00">NexCheckbox</text>
</a>
</g>
</g>
<!-- Node1&#45;&gt;Node5 -->
<g id="edge4" class="edge">
<title>Node1&#45;&gt;Node5</title>
<path fill="none" stroke="midnightblue" d="M140.98,-276.72C147.67,-308.91 165.33,-372.78 205,-409 209.32,-412.95 214.49,-416.08 219.93,-418.56"/>
<polygon fill="midnightblue" stroke="midnightblue" points="144.39,-275.91 139.05,-266.76 137.51,-277.24 144.39,-275.91"/>
</g>
<!-- Node6 -->
<g id="node6" class="node">
<title>Node6</title>
<g id="a_node6"><a xlink:href="classNexCrop.html" target="_top" xlink:title="Componente de imagem com recorte do Nextion.">
<polygon fill="white" stroke="black" points="232.5,-380.5 232.5,-399.5 291.5,-399.5 291.5,-380.5 232.5,-380.5"/>
<text text-anchor="middle" x="262" y="-387.5" font-family="Helvetica,sans-Serif" font-size="10.00">NexCrop</text>
</a>
</g>
</g>
<!-- Node1&#45;&gt;Node6 -->
<g id="edge5" class="edge">
<title>Node1&#45;&gt;Node6</title>
<path fill="none" stroke="midnightblue" d="M144.11,-276.4C153.68,-301.68 173.74,-345.64 205,-371 212.81,-377.34 222.85,-381.61 232.26,-384.47"/>
<polygon fill="midnightblue" stroke="midnightblue" points="147.34,-275.03 140.65,-266.82 140.75,-277.41 147.34,-275.03"/>
</g>
<!-- Node7 -->
<g id="node7" class="node">
<title>Node7</title>
<g id="a_node7"><a xlink:href="classNexHotspot.html" target="_top" xlink:title="Área de toque invisível do Nextion.">
<polygon fill="white" stroke="black" points="225,-342.5 225,-361.5 299,-361.5 299,-342.5 225,-342.5"/>
<text text-anchor="middle" x="262" y="-349.5" font-family="Helvetica,sans-Serif" font-size="10.00">NexHotspot</text>
</a>
</g>
</g>
<!-- Node1&#45;&gt;Node7 -->
<g id="edge6" class="edge">
<title>Node1&#45;&gt;Node7</title>
<path fill="none" stroke="midnightblue" d="M149.44,-275.18C161.56,-292.32 181.8,-317.61 205,-333 210.99,-336.97 217.89,-340.19 224.75,-342.78"/>
<polygon fill="midnightblue" stroke="midnightblue" points="152.11,-272.89 143.57,-266.61 146.33,-276.84 152.11,-272.89"/>
</g>
<!-- Node8 -->
<g id="node8" class="node">
<title>Node8</title>
<g id="a_node8"><a xlink:href="classNexImagem.html" target="_top" xlink:title="Componente de imagem do Nextion.">
<polygon fill="white" stroke="black" points="223.5,-304.5 223.5,-323.5 300.5,-323.5 300.5,-304.5 223.5,-304.5"/>
<text text-anchor="middle" x="262" y="-311.5" font-family="Helvetica,sans-Serif" font-size="10.00">NexImagem</text>
</a>
</g>
</g>
<!-- Node1&#45;&gt;Node8 -->
<g id="edge7" class="edge">
<title>Node1&#45;&gt;Node8</title>
<path fill="none" stroke="midnightblue" d="M161.21,-271.78C173.9,-279.32 189.98,-288.29 205,-295 212.78,-298.47 221.4,-301.69 229.5,-304.46"/>
<polygon fill="midnightblue" stroke="midnightblue" points="163,-268.77 152.63,-266.59 159.38,-274.76 163,-268.77"/>
</g>
<!-- Node9 -->
<g id="node9" class="node">
<title>Node9</title>
<g id="a_node9"><a xlink:href="classNexNumero.html" target="_top" xlink:title="Componente de número do Nextion.">
<polygon fill="white" stroke="black" points="224.5,-266.5 224.5,-285.5 299.5,-285.5 299.5,-266.5 224.5,-266.5"/>
<text text-anchor="middle" x="262" y="-273.5" font-family="Helvetica,sans-Serif" font-size="10.00">NexNumero</text>
</a>
</g>
</g>
<!-- Node1&#45;&gt;Node9 -->
<g id="edge8" class="edge">
<title>Node1&#45;&gt;Node9</title>
<path fill="none" stroke="midnightblue" d="M179.58,-263.47C194.17,-265.72 210.39,-268.21 224.49,-270.38"/>
<polygon fill="midnightblue" stroke="midnightblue" points="179.72,-259.95 169.3,-261.89 178.66,-266.87 179.72,-259.95"/>
</g>
<!-- Node10 -->
<g id="node10" class="node">
<title>Node10</title>
<g id="a_node10"><a xlink:href="classNexPagina.html" target="_top" xlink:title="Representa uma página do display Nextion.">
<polygon fill="white" stroke="black" points="228,-228.5 228,-247.5 296,-247.5 296,-228.5 228,-228.5"/>
<text text-anchor="middle" x="262" y="-235.5" font-family="Helvetica,sans-Serif" font-size="10.00">NexPagina</text>
</a>
</g>
</g>
<!-- Node1&#45;&gt;Node10 -->
<g id="edge9" class="edge">
<title>Node1&#45;&gt;Node10</title>
<path fill="none" stroke="midnightblue" d="M179.31,-250.57C195.04,-248.15 212.71,-245.43 227.58,-243.14"/>
<polygon fill="midnightblue" stroke="midnightblue" points="178.66,-247.13 169.3,-252.11 179.72,-254.05 178.66,-247.13"/>
</g>
<!-- Node11 -->
<g id="node11" class="node">
<title>Node11</title>
<g id="a_node11"><a xlink:href="classNexRadio.html" target="_top" xlink:title="Componente radio button do Nextion.">
<polygon fill="white" stroke="black" points="230,-190.5 230,-209.5 294,-209.5 294,-190.5 230,-190.5"/>
<text text-anchor="middle" x="262" y="-197.5" font-family="Helvetica,sans-Serif" font-size="10.00">NexRadio</text>
</a>
</g>
</g>
<!-- Node1&#45;&gt;Node11 -->
<g id="edge10" class="edge">
<title>Node1&#45;&gt;Node11</title>
<path fill="none" stroke="midnightblue" d="M161.21,-242.22C173.9,-234.68 189.98,-225.71 205,-219 212.87,-215.48 221.61,-212.23 229.8,-209.44"/>
<polygon fill="midnightblue" stroke="midnightblue" points="159.38,-239.24 152.63,-247.41 163,-245.23 159.38,-239.24"/>
</g>
<!-- Node12 -->
<g id="node12" class="node">
<title>Node12</title>
<g id="a_node12"><a xlink:href="classNexSlider.html" target="_top" xlink:title="Componente slider do Nextion.">
<polygon fill="white" stroke="black" points="230,-152.5 230,-171.5 294,-171.5 294,-152.5 230,-152.5"/>
<text text-anchor="middle" x="262" y="-159.5" font-family="Helvetica,sans-Serif" font-size="10.00">NexSlider</text>
</a>
</g>
</g>
<!-- Node1&#45;&gt;Node12 -->
<g id="edge11" class="edge">
<title>Node1&#45;&gt;Node12</title>
<path fill="none" stroke="midnightblue" d="M149.44,-238.82C161.56,-221.68 181.8,-196.39 205,-181 212.44,-176.06 221.29,-172.29 229.74,-169.45"/>
<polygon fill="midnightblue" stroke="midnightblue" points="146.33,-237.16 143.57,-247.39 152.11,-241.11 146.33,-237.16"/>
</g>
<!-- Node13 -->
<g id="node13" class="node">
<title>Node13</title>
<g id="a_node13"><a xlink:href="classNexTexto.html" target="_top" xlink:title="Componente de texto do Nextion.">
<polygon fill="white" stroke="black" points="231,-114.5 231,-133.5 293,-133.5 293,-114.5 231,-114.5"/>
<text text-anchor="middle" x="262" y="-121.5" font-family="Helvetica,sans-Serif" font-size="10.00">NexTexto</text>
</a>
</g>
</g>
<!-- Node1&#45;&gt;Node13 -->
<g id="edge12" class="edge">
<title>Node1&#45;&gt;Node13</title>
<path fill="none" stroke="midnightblue" d="M144.11,-237.6C153.68,-212.32 173.74,-168.36 205,-143 212.41,-136.98 221.83,-132.83 230.82,-129.98"/>
<polygon fill="midnightblue" stroke="midnightblue" points="140.75,-236.59 140.65,-247.18 147.34,-238.97 140.75,-236.59"/>
</g>
<!-- Node14 -->
<g id="node14" class="node">
<title>Node14</title>
<g id="a_node14"><a xlink:href="classNexTextoDeslizante.html" target="_top" xlink:title="Componente de texto com rolagem automática do Nextion.">
<polygon fill="white" stroke="black" points="205,-76.5 205,-95.5 319,-95.5 319,-76.5 205,-76.5"/>
<text text-anchor="middle" x="262" y="-83.5" font-family="Helvetica,sans-Serif" font-size="10.00">NexTextoDeslizante</text>
</a>
</g>
</g>
<!-- Node1&#45;&gt;Node14 -->
<g id="edge13" class="edge">
<title>Node1&#45;&gt;Node14</title>
<path fill="none" stroke="midnightblue" d="M140.98,-237.28C147.67,-205.09 165.33,-141.22 205,-105 209.25,-101.12 214.31,-98.03 219.64,-95.57"/>
<polygon fill="midnightblue" stroke="midnightblue" points="137.51,-236.76 139.05,-247.24 144.39,-238.09 137.51,-236.76"/>
</g>
<!-- Node15 -->
<g id="node15" class="node">
<title>Node15</title>
<g id="a_node15"><a xlink:href="classNexTimer.html" target="_top" xlink:title="Componente timer do Nextion.">
<polygon fill="white" stroke="black" points="229.5,-38.5 229.5,-57.5 294.5,-57.5 294.5,-38.5 229.5,-38.5"/>
<text text-anchor="middle" x="262" y="-45.5" font-family="Helvetica,sans-Serif" font-size="10.00">NexTimer</text>
</a>
</g>
</g>
<!-- Node1&#45;&gt;Node15 -->
<g id="edge14" class="edge">
<title>Node1&#45;&gt;Node15</title>
<path fill="none" stroke="midnightblue" d="M139.01,-236.78C142.95,-198.36 156.88,-114.44 205,-67 211.65,-60.44 220.65,-56.14 229.49,-53.33"/>
<polygon fill="midnightblue" stroke="midnightblue" points="135.49,-236.88 138.08,-247.15 142.46,-237.5 135.49,-236.88"/>
</g>
<!-- Node16 -->
<g id="node16" class="node">
<title>Node16</title>
<g id="a_node16"><a xlink:href="classNexVariavel.html" target="_top" xlink:title="Variável interna do Nextion (sem representação visual).">
<polygon fill="white" stroke="black" points="224,-0.5 224,-19.5 300,-19.5 300,-0.5 224,-0.5"/>
<text text-anchor="middle" x="262" y="-7.5" font-family="Helvetica,sans-Serif" font-size="10.00">NexVariavel</text>
</a>
</g>
</g>
<!-- Node1&#45;&gt;Node16 -->
<g id="edge15" class="edge">
<title>Node1&#45;&gt;Node16</title>
<path fill="none" stroke="midnightblue" d="M137.58,-237.06C138.84,-193.35 148.01,-88.28 205,-29 210.12,-23.67 216.79,-19.84 223.74,-17.08"/>
<polygon fill="midnightblue" stroke="midnightblue" points="134.07,-237.17 137.4,-247.23 141.07,-237.3 134.07,-237.17"/>
</g>
<!-- Node2 -->
<g id="node2" class="node">
<title>Node2</title>
<g id="a_node2"><a xlink:href="classNexObjeto.html" target="_top" xlink:title="Classe base de todos os componentes Nextion.">
<polygon fill="white" stroke="black" points="0,-247.5 0,-266.5 68,-266.5 68,-247.5 0,-247.5"/>
<text text-anchor="middle" x="34" y="-254.5" font-family="Helvetica,sans-Serif" font-size="10.00">NexObjeto</text>
</a>
</g>
</g>
<!-- Node2&#45;&gt;Node1 -->
<g id="edge1" class="edge">
<title>Node2&#45;&gt;Node1</title>
<path fill="none" stroke="midnightblue" d="M78.37,-257C86.88,-257 95.67,-257 103.71,-257"/>
<polygon fill="midnightblue" stroke="midnightblue" points="78.19,-253.5 68.19,-257 78.19,-260.5 78.19,-253.5"/>
</g>
</g>
</svg>
