<?xml version="1.0" encoding="UTF-8" standalone="no"?>
<!DOCTYPE svg PUBLIC "-//W3C//DTD SVG 1.1//EN"
 "http://www.w3.org/Graphics/SVG/1.1/DTD/svg11.dtd">
<!-- Generated by graphviz version 2.43.0 (0)
 -->
<!-- Title: src/NexConfig.h Pages: 1 -->
<svg width="524pt" height="364pt"
 viewBox="0.00 0.00 524.00 364.00" xmlns="http://www.w3.org/2000/svg" xmlns:xlink="http://www.w3.org/1999/xlink">
<g id="graph0" class="graph" transform="scale(1 1) rotate(0) translate(4 360)">
<title>src/NexConfig.h</title>
<polygon fill="white" stroke="transparent" points="-4,4 -4,-360 520,-360 520,4 -4,4"/>
<!-- Node1 -->
<g id="node1" class="node">
<title>Node1</title>
<g id="a_node1"><a xlink:title="Configuração global da biblioteca NextionUI.">
<polygon fill="#bfbfbf" stroke="black" points="342.5,-336.5 342.5,-355.5 435.5,-355.5 435.5,-336.5 342.5,-336.5"/>
<text text-anchor="middle" x="389" y="-343.5" font-family="Helvetica,sans-Serif" font-size="10.00">src/NexConfig.h</text>
</a>
</g>
</g>
<!-- Node2 -->
<g id="node2" class="node">
<title>Node2</title>
<g id="a_node2"><a xlink:href="NexHardware_8h.html" target="_top" xlink:title="Camada de hardware da biblioteca NextionUI.">
<polygon fill="white" stroke="black" points="334,-280.5 334,-299.5 444,-299.5 444,-280.5 334,-280.5"/>
<text text-anchor="middle" x="389" y="-287.5" font-family="Helvetica,sans-Serif" font-size="10.00">src/NexHardware.h</text>
</a>
</g>
</g>
<!-- Node1&#45;&gt;Node2 -->
<g id="edge1" class="edge">
<title>Node1&#45;&gt;Node2</title>
<path fill="none" stroke="midnightblue" d="M389,-325.8C389,-316.91 389,-306.78 389,-299.75"/>
<polygon fill="midnightblue" stroke="midnightblue" points="385.5,-326.08 389,-336.08 392.5,-326.08 385.5,-326.08"/>
</g>
<!-- Node4 -->
<g id="node4" class="node">
<title>Node4</title>
<g id="a_node4"><a xlink:href="NexObjeto_8h.html" target="_top" xlink:title="Classe base de todos os componentes Nextion.">
<polygon fill="white" stroke="black" points="215.5,-224.5 215.5,-243.5 310.5,-243.5 310.5,-224.5 215.5,-224.5"/>
<text text-anchor="middle" x="263" y="-231.5" font-family="Helvetica,sans-Serif" font-size="10.00">src/NexObjeto.h</text>
</a>
</g>
</g>
<!-- Node1&#45;&gt;Node4 -->
<g id="edge15" class="edge">
<title>Node1&#45;&gt;Node4</title>
<path fill="none" stroke="midnightblue" d="M366.62,-330.84C353.96,-322.44 338.09,-311.27 325,-300 303.49,-281.48 281.23,-256.44 270.16,-243.51"/>
<polygon fill="midnightblue" stroke="midnightblue" points="364.9,-333.9 375.19,-336.42 368.73,-328.03 364.9,-333.9"/>
</g>
<!-- Node6 -->
<g id="node6" class="node">
<title>Node6</title>
<g id="a_node6"><a xlink:href="NextionUI_8h.html" target="_top" xlink:title="Ponto único de inclusão da biblioteca NextionUI.">
<polygon fill="white" stroke="black" points="238,-0.5 238,-19.5 330,-19.5 330,-0.5 238,-0.5"/>
<text text-anchor="middle" x="284" y="-7.5" font-family="Helvetica,sans-Serif" font-size="10.00">src/NextionUI.h</text>
</a>
</g>
</g>
<!-- Node1&#45;&gt;Node6 -->
<g id="edge16" class="edge">
<title>Node1&#45;&gt;Node6</title>
<path fill="none" stroke="midnightblue" d="M423.4,-332.44C461.01,-316.23 516,-284.13 516,-235 516,-235 516,-235 516,-121 516,-39.54 397.77,-18.33 330.11,-12.86"/>
<polygon fill="midnightblue" stroke="midnightblue" points="421.7,-329.36 413.79,-336.41 424.37,-335.83 421.7,-329.36"/>
</g>
<!-- Node3 -->
<g id="node3" class="node">
<title>Node3</title>
<g id="a_node3"><a xlink:href="NexHardware_8cpp.html" target="_top" xlink:title="Implementação da camada de hardware NextionUI.">
<polygon fill="white" stroke="black" points="328.5,-224.5 328.5,-243.5 449.5,-243.5 449.5,-224.5 328.5,-224.5"/>
<text text-anchor="middle" x="389" y="-231.5" font-family="Helvetica,sans-Serif" font-size="10.00">src/NexHardware.cpp</text>
</a>
</g>
</g>
<!-- Node2&#45;&gt;Node3 -->
<g id="edge2" class="edge">
<title>Node2&#45;&gt;Node3</title>
<path fill="none" stroke="midnightblue" d="M389,-269.8C389,-260.91 389,-250.78 389,-243.75"/>
<polygon fill="midnightblue" stroke="midnightblue" points="385.5,-270.08 389,-280.08 392.5,-270.08 385.5,-270.08"/>
</g>
<!-- Node2&#45;&gt;Node4 -->
<g id="edge3" class="edge">
<title>Node2&#45;&gt;Node4</title>
<path fill="none" stroke="midnightblue" d="M359.84,-276.5C336.22,-266.38 303.57,-252.39 282.87,-243.52"/>
<polygon fill="midnightblue" stroke="midnightblue" points="358.46,-279.72 369.03,-280.44 361.22,-273.29 358.46,-279.72"/>
</g>
<!-- Node2&#45;&gt;Node6 -->
<g id="edge14" class="edge">
<title>Node2&#45;&gt;Node6</title>
<path fill="none" stroke="midnightblue" d="M419.26,-275.74C433.17,-268.25 448.81,-257.63 459,-244 477.02,-219.89 478,-209.1 478,-179 478,-179 478,-179 478,-121 478,-53.44 387.86,-26.87 330.47,-16.8"/>
<polygon fill="midnightblue" stroke="midnightblue" points="417.34,-272.79 409.99,-280.42 420.5,-279.03 417.34,-272.79"/>
</g>
<!-- Node5 -->
<g id="node5" class="node">
<title>Node5</title>
<g id="a_node5"><a xlink:href="NexObjeto_8cpp.html" target="_top" xlink:title="Implementação da classe base NexObjeto.">
<polygon fill="white" stroke="black" points="344,-168.5 344,-187.5 450,-187.5 450,-168.5 344,-168.5"/>
<text text-anchor="middle" x="397" y="-175.5" font-family="Helvetica,sans-Serif" font-size="10.00">src/NexObjeto.cpp</text>
</a>
</g>
</g>
<!-- Node4&#45;&gt;Node5 -->
<g id="edge4" class="edge">
<title>Node4&#45;&gt;Node5</title>
<path fill="none" stroke="midnightblue" d="M293.68,-220.64C318.82,-210.5 353.75,-196.43 375.87,-187.52"/>
<polygon fill="midnightblue" stroke="midnightblue" points="292.2,-217.46 284.23,-224.44 294.82,-223.95 292.2,-217.46"/>
</g>
<!-- Node4&#45;&gt;Node6 -->
<g id="edge5" class="edge">
<title>Node4&#45;&gt;Node6</title>
<path fill="none" stroke="midnightblue" d="M269.47,-214.44C279.92,-182.33 298.77,-114.26 293,-56 291.73,-43.16 288.46,-28.55 286.23,-19.55"/>
<polygon fill="midnightblue" stroke="midnightblue" points="266.05,-213.62 266.18,-224.22 272.69,-215.86 266.05,-213.62"/>
</g>
<!-- Node7 -->
<g id="node7" class="node">
<title>Node7</title>
<g id="a_node7"><a xlink:href="NexToque_8h.html" target="_top" xlink:title="Componentes com suporte a eventos de toque.">
<polygon fill="white" stroke="black" points="175.5,-168.5 175.5,-187.5 266.5,-187.5 266.5,-168.5 175.5,-168.5"/>
<text text-anchor="middle" x="221" y="-175.5" font-family="Helvetica,sans-Serif" font-size="10.00">src/NexToque.h</text>
</a>
</g>
</g>
<!-- Node4&#45;&gt;Node7 -->
<g id="edge6" class="edge">
<title>Node4&#45;&gt;Node7</title>
<path fill="none" stroke="midnightblue" d="M249.89,-216.14C242.57,-206.74 233.76,-195.4 227.81,-187.75"/>
<polygon fill="midnightblue" stroke="midnightblue" points="247.16,-218.34 256.06,-224.08 252.69,-214.04 247.16,-218.34"/>
</g>
<!-- Node7&#45;&gt;Node6 -->
<g id="edge12" class="edge">
<title>Node7&#45;&gt;Node6</title>
<path fill="none" stroke="midnightblue" d="M237.82,-161.12C245.38,-153.08 253.77,-142.76 259,-132 277.94,-93.03 282.56,-40.22 283.66,-19.68"/>
<polygon fill="midnightblue" stroke="midnightblue" points="235.23,-158.77 230.67,-168.33 240.2,-163.69 235.23,-158.77"/>
</g>
<!-- Node8 -->
<g id="node8" class="node">
<title>Node8</title>
<g id="a_node8"><a xlink:href="NexComponentes_8h.html" target="_top" xlink:title="Todos os componentes Nextion com API em português.">
<polygon fill="white" stroke="black" points="0,-112.5 0,-131.5 130,-131.5 130,-112.5 0,-112.5"/>
<text text-anchor="middle" x="65" y="-119.5" font-family="Helvetica,sans-Serif" font-size="10.00">src/NexComponentes.h</text>
</a>
</g>
</g>
<!-- Node7&#45;&gt;Node8 -->
<g id="edge7" class="edge">
<title>Node7&#45;&gt;Node8</title>
<path fill="none" stroke="midnightblue" d="M186.83,-165.17C157.46,-155 115.8,-140.59 89.6,-131.52"/>
<polygon fill="midnightblue" stroke="midnightblue" points="185.69,-168.48 196.28,-168.44 187.98,-161.86 185.69,-168.48"/>
</g>
<!-- Node11 -->
<g id="node11" class="node">
<title>Node11</title>
<g id="a_node11"><a xlink:href="NexToque_8cpp.html" target="_top" xlink:title="Implementação de NexToque.">
<polygon fill="white" stroke="black" points="148,-112.5 148,-131.5 250,-131.5 250,-112.5 148,-112.5"/>
<text text-anchor="middle" x="199" y="-119.5" font-family="Helvetica,sans-Serif" font-size="10.00">src/NexToque.cpp</text>
</a>
</g>
</g>
<!-- Node7&#45;&gt;Node11 -->
<g id="edge13" class="edge">
<title>Node7&#45;&gt;Node11</title>
<path fill="none" stroke="midnightblue" d="M213.54,-158.69C209.83,-149.59 205.52,-139.01 202.57,-131.75"/>
<polygon fill="midnightblue" stroke="midnightblue" points="210.35,-160.14 217.37,-168.08 216.84,-157.5 210.35,-160.14"/>
</g>
<!-- Node8&#45;&gt;Node6 -->
<g id="edge11" class="edge">
<title>Node8&#45;&gt;Node6</title>
<path fill="none" stroke="midnightblue" d="M115.47,-109.95C143.25,-102.64 177.71,-91.52 206,-76 234.44,-60.4 262.29,-33.64 275.71,-19.83"/>
<polygon fill="midnightblue" stroke="midnightblue" points="114.4,-106.61 105.57,-112.47 116.12,-113.39 114.4,-106.61"/>
</g>
<!-- Node9 -->
<g id="node9" class="node">
<title>Node9</title>
<g id="a_node9"><a xlink:href="NexDisplay_8h.html" target="_top" xlink:title="Ponto de entrada único para o display Nextion.">
<polygon fill="white" stroke="black" points="99,-56.5 99,-75.5 197,-75.5 197,-56.5 99,-56.5"/>
<text text-anchor="middle" x="148" y="-63.5" font-family="Helvetica,sans-Serif" font-size="10.00">src/NexDisplay.h</text>
</a>
</g>
</g>
<!-- Node8&#45;&gt;Node9 -->
<g id="edge8" class="edge">
<title>Node8&#45;&gt;Node9</title>
<path fill="none" stroke="midnightblue" d="M87.1,-106.62C102.26,-96.76 121.88,-83.99 134.7,-75.65"/>
<polygon fill="midnightblue" stroke="midnightblue" points="84.81,-103.94 78.34,-112.32 88.63,-109.8 84.81,-103.94"/>
</g>
<!-- Node9&#45;&gt;Node6 -->
<g id="edge10" class="edge">
<title>Node9&#45;&gt;Node6</title>
<path fill="none" stroke="midnightblue" d="M179.13,-52.64C204.66,-42.5 240.11,-28.43 262.55,-19.52"/>
<polygon fill="midnightblue" stroke="midnightblue" points="177.55,-49.5 169.55,-56.44 180.14,-56.01 177.55,-49.5"/>
</g>
<!-- Node10 -->
<g id="node10" class="node">
<title>Node10</title>
<g id="a_node10"><a xlink:href="NexDisplay_8cpp.html" target="_top" xlink:title="Implementação do NexDisplay.">
<polygon fill="white" stroke="black" points="93.5,-0.5 93.5,-19.5 202.5,-19.5 202.5,-0.5 93.5,-0.5"/>
<text text-anchor="middle" x="148" y="-7.5" font-family="Helvetica,sans-Serif" font-size="10.00">src/NexDisplay.cpp</text>
</a>
</g>
</g>
<!-- Node9&#45;&gt;Node10 -->
<g id="edge9" class="edge">
<title>Node9&#45;&gt;Node10</title>
<path fill="none" stroke="midnightblue" d="M148,-45.8C148,-36.91 148,-26.78 148,-19.75"/>
<polygon fill="midnightblue" stroke="midnightblue" points="144.5,-46.08 148,-56.08 151.5,-46.08 144.5,-46.08"/>
</g>
</g>
</svg>
