<?xml version="1.0" encoding="UTF-8" standalone="no"?>
<!DOCTYPE svg PUBLIC "-//W3C//DTD SVG 1.1//EN"
 "http://www.w3.org/Graphics/SVG/1.1/DTD/svg11.dtd">
<!-- Generated by graphviz version 2.43.0 (0)
 -->
<!-- Title: src/NexComponentes.h Pages: 1 -->
<svg width="193pt" height="308pt"
 viewBox="0.00 0.00 193.00 308.00" xmlns="http://www.w3.org/2000/svg" xmlns:xlink="http://www.w3.org/1999/xlink">
<g id="graph0" class="graph" transform="scale(1 1) rotate(0) translate(4 304)">
<title>src/NexComponentes.h</title>
<polygon fill="white" stroke="transparent" points="-4,4 -4,-304 189,-304 189,4 -4,4"/>
<!-- Node1 -->
<g id="node1" class="node">
<title>Node1</title>
<g id="a_node1"><a xlink:title="Todos os componentes Nextion com API em português.">
<polygon fill="#bfbfbf" stroke="black" points="0,-280.5 0,-299.5 130,-299.5 130,-280.5 0,-280.5"/>
<text text-anchor="middle" x="65" y="-287.5" font-family="Helvetica,sans-Serif" font-size="10.00">src/NexComponentes.h</text>
</a>
</g>
</g>
<!-- Node2 -->
<g id="node2" class="node">
<title>Node2</title>
<g id="a_node2"><a xlink:href="NexToque_8h.html" target="_top" xlink:title="Componentes com suporte a eventos de toque.">
<polygon fill="white" stroke="black" points="28,-224.5 28,-243.5 102,-243.5 102,-224.5 28,-224.5"/>
<text text-anchor="middle" x="65" y="-231.5" font-family="Helvetica,sans-Serif" font-size="10.00">NexToque.h</text>
</a>
</g>
</g>
<!-- Node1&#45;&gt;Node2 -->
<g id="edge1" class="edge">
<title>Node1&#45;&gt;Node2</title>
<path fill="none" stroke="midnightblue" d="M65,-280.08C65,-273.01 65,-262.86 65,-253.99"/>
<polygon fill="midnightblue" stroke="midnightblue" points="68.5,-253.75 65,-243.75 61.5,-253.75 68.5,-253.75"/>
</g>
<!-- Node3 -->
<g id="node3" class="node">
<title>Node3</title>
<g id="a_node3"><a xlink:href="NexObjeto_8h.html" target="_top" xlink:title="Classe base de todos os componentes Nextion.">
<polygon fill="white" stroke="black" points="26.5,-168.5 26.5,-187.5 103.5,-187.5 103.5,-168.5 26.5,-168.5"/>
<text text-anchor="middle" x="65" y="-175.5" font-family="Helvetica,sans-Serif" font-size="10.00">NexObjeto.h</text>
</a>
</g>
</g>
<!-- Node2&#45;&gt;Node3 -->
<g id="edge2" class="edge">
<title>Node2&#45;&gt;Node3</title>
<path fill="none" stroke="midnightblue" d="M65,-224.08C65,-217.01 65,-206.86 65,-197.99"/>
<polygon fill="midnightblue" stroke="midnightblue" points="68.5,-197.75 65,-187.75 61.5,-197.75 68.5,-197.75"/>
</g>
<!-- Node4 -->
<g id="node4" class="node">
<title>Node4</title>
<g id="a_node4"><a xlink:title=" ">
<polygon fill="white" stroke="#bfbfbf" points="51.5,-0.5 51.5,-19.5 114.5,-19.5 114.5,-0.5 51.5,-0.5"/>
<text text-anchor="middle" x="83" y="-7.5" font-family="Helvetica,sans-Serif" font-size="10.00">Arduino.h</text>
</a>
</g>
</g>
<!-- Node3&#45;&gt;Node4 -->
<g id="edge3" class="edge">
<title>Node3&#45;&gt;Node4</title>
<path fill="none" stroke="midnightblue" d="M59.39,-168.48C46.83,-148.27 18.86,-96.13 36,-56 41.15,-43.95 51.28,-33.58 60.83,-25.84"/>
<polygon fill="midnightblue" stroke="midnightblue" points="63.04,-28.55 68.92,-19.74 58.83,-22.96 63.04,-28.55"/>
</g>
<!-- Node5 -->
<g id="node5" class="node">
<title>Node5</title>
<g id="a_node5"><a xlink:href="NexConfig_8h.html" target="_top" xlink:title="Configuração global da biblioteca NextionUI.">
<polygon fill="white" stroke="black" points="45,-56.5 45,-75.5 121,-75.5 121,-56.5 45,-56.5"/>
<text text-anchor="middle" x="83" y="-63.5" font-family="Helvetica,sans-Serif" font-size="10.00">NexConfig.h</text>
</a>
</g>
</g>
<!-- Node3&#45;&gt;Node5 -->
<g id="edge4" class="edge">
<title>Node3&#45;&gt;Node5</title>
<path fill="none" stroke="midnightblue" d="M66.41,-168.37C69.32,-150.62 76.02,-109.67 79.96,-85.6"/>
<polygon fill="midnightblue" stroke="midnightblue" points="83.43,-86.03 81.59,-75.59 76.53,-84.89 83.43,-86.03"/>
</g>
<!-- Node6 -->
<g id="node6" class="node">
<title>Node6</title>
<g id="a_node6"><a xlink:href="NexHardware_8h.html" target="_top" xlink:title="Camada de hardware da biblioteca NextionUI.">
<polygon fill="white" stroke="black" points="93,-112.5 93,-131.5 185,-131.5 185,-112.5 93,-112.5"/>
<text text-anchor="middle" x="139" y="-119.5" font-family="Helvetica,sans-Serif" font-size="10.00">NexHardware.h</text>
</a>
</g>
</g>
<!-- Node3&#45;&gt;Node6 -->
<g id="edge6" class="edge">
<title>Node3&#45;&gt;Node6</title>
<path fill="none" stroke="midnightblue" d="M76.89,-168.32C88.15,-160.11 105.29,-147.6 118.71,-137.81"/>
<polygon fill="midnightblue" stroke="midnightblue" points="120.88,-140.56 126.89,-131.83 116.75,-134.9 120.88,-140.56"/>
</g>
<!-- Node5&#45;&gt;Node4 -->
<g id="edge5" class="edge">
<title>Node5&#45;&gt;Node4</title>
<path fill="none" stroke="midnightblue" d="M83,-56.08C83,-49.01 83,-38.86 83,-29.99"/>
<polygon fill="midnightblue" stroke="midnightblue" points="86.5,-29.75 83,-19.75 79.5,-29.75 86.5,-29.75"/>
</g>
<!-- Node6&#45;&gt;Node4 -->
<g id="edge7" class="edge">
<title>Node6&#45;&gt;Node4</title>
<path fill="none" stroke="midnightblue" d="M139.54,-112.47C140,-99.53 139.43,-74.46 130,-56 123.96,-44.17 113.55,-33.72 104.07,-25.87"/>
<polygon fill="midnightblue" stroke="midnightblue" points="106.14,-23.05 96.1,-19.68 101.85,-28.58 106.14,-23.05"/>
</g>
<!-- Node6&#45;&gt;Node5 -->
<g id="edge8" class="edge">
<title>Node6&#45;&gt;Node5</title>
<path fill="none" stroke="midnightblue" d="M130,-112.32C121.81,-104.42 109.49,-92.55 99.53,-82.94"/>
<polygon fill="midnightblue" stroke="midnightblue" points="101.79,-80.26 92.16,-75.83 96.93,-85.29 101.79,-80.26"/>
</g>
</g>
</svg>
