<?xml version="1.0" encoding="UTF-8" standalone="no"?>
<!DOCTYPE svg PUBLIC "-//W3C//DTD SVG 1.1//EN"
 "http://www.w3.org/Graphics/SVG/1.1/DTD/svg11.dtd">
<!-- Generated by graphviz version 2.43.0 (0)
 -->
<!-- Title: src/NexComponentes.h Pages: 1 -->
<svg width="228pt" height="140pt"
 viewBox="0.00 0.00 227.50 140.00" xmlns="http://www.w3.org/2000/svg" xmlns:xlink="http://www.w3.org/1999/xlink">
<g id="graph0" class="graph" transform="scale(1 1) rotate(0) translate(4 136)">
<title>src/NexComponentes.h</title>
<polygon fill="white" stroke="transparent" points="-4,4 -4,-136 223.5,-136 223.5,4 -4,4"/>
<!-- Node1 -->
<g id="node1" class="node">
<title>Node1</title>
<g id="a_node1"><a xlink:title="Todos os componentes Nextion com API em português.">
<polygon fill="#bfbfbf" stroke="black" points="69.5,-112.5 69.5,-131.5 199.5,-131.5 199.5,-112.5 69.5,-112.5"/>
<text text-anchor="middle" x="134.5" y="-119.5" font-family="Helvetica,sans-Serif" font-size="10.00">src/NexComponentes.h</text>
</a>
</g>
</g>
<!-- Node2 -->
<g id="node2" class="node">
<title>Node2</title>
<g id="a_node2"><a xlink:href="NexDisplay_8h.html" target="_top" xlink:title="Ponto de entrada único para o display Nextion.">
<polygon fill="white" stroke="black" points="47.5,-56.5 47.5,-75.5 145.5,-75.5 145.5,-56.5 47.5,-56.5"/>
<text text-anchor="middle" x="96.5" y="-63.5" font-family="Helvetica,sans-Serif" font-size="10.00">src/NexDisplay.h</text>
</a>
</g>
</g>
<!-- Node1&#45;&gt;Node2 -->
<g id="edge1" class="edge">
<title>Node1&#45;&gt;Node2</title>
<path fill="none" stroke="midnightblue" d="M122.44,-103.86C115.86,-94.5 107.99,-83.33 102.66,-75.75"/>
<polygon fill="midnightblue" stroke="midnightblue" points="119.61,-105.92 128.23,-112.08 125.33,-101.89 119.61,-105.92"/>
</g>
<!-- Node4 -->
<g id="node4" class="node">
<title>Node4</title>
<g id="a_node4"><a xlink:href="NextionUI_8h.html" target="_top" xlink:title="Ponto único de inclusão da biblioteca NextionUI.">
<polygon fill="white" stroke="black" points="127.5,-0.5 127.5,-19.5 219.5,-19.5 219.5,-0.5 127.5,-0.5"/>
<text text-anchor="middle" x="173.5" y="-7.5" font-family="Helvetica,sans-Serif" font-size="10.00">src/NextionUI.h</text>
</a>
</g>
</g>
<!-- Node1&#45;&gt;Node4 -->
<g id="edge4" class="edge">
<title>Node1&#45;&gt;Node4</title>
<path fill="none" stroke="midnightblue" d="M143.19,-102.95C146.93,-94.81 151.19,-85.03 154.5,-76 161.78,-56.13 168.22,-32.07 171.4,-19.53"/>
<polygon fill="midnightblue" stroke="midnightblue" points="139.93,-101.64 138.84,-112.18 146.27,-104.62 139.93,-101.64"/>
</g>
<!-- Node3 -->
<g id="node3" class="node">
<title>Node3</title>
<g id="a_node3"><a xlink:href="NexDisplay_8cpp.html" target="_top" xlink:title="Implementação do NexDisplay.">
<polygon fill="white" stroke="black" points="0,-0.5 0,-19.5 109,-19.5 109,-0.5 0,-0.5"/>
<text text-anchor="middle" x="54.5" y="-7.5" font-family="Helvetica,sans-Serif" font-size="10.00">src/NexDisplay.cpp</text>
</a>
</g>
</g>
<!-- Node2&#45;&gt;Node3 -->
<g id="edge2" class="edge">
<title>Node2&#45;&gt;Node3</title>
<path fill="none" stroke="midnightblue" d="M83.39,-48.14C76.07,-38.74 67.26,-27.4 61.31,-19.75"/>
<polygon fill="midnightblue" stroke="midnightblue" points="80.66,-50.34 89.56,-56.08 86.19,-46.04 80.66,-50.34"/>
</g>
<!-- Node2&#45;&gt;Node4 -->
<g id="edge3" class="edge">
<title>Node2&#45;&gt;Node4</title>
<path fill="none" stroke="midnightblue" d="M117.4,-50.34C131.41,-40.52 149.38,-27.91 161.16,-19.65"/>
<polygon fill="midnightblue" stroke="midnightblue" points="115.05,-47.72 108.87,-56.32 119.07,-53.45 115.05,-47.72"/>
</g>
</g>
</svg>
