<?xml version="1.0" encoding="UTF-8" standalone="no"?>
<!DOCTYPE svg PUBLIC "-//W3C//DTD SVG 1.1//EN"
 "http://www.w3.org/Graphics/SVG/1.1/DTD/svg11.dtd">
<!-- Generated by graphviz version 2.43.0 (0)
 -->
<!-- Title: src/NexDisplay.h Pages: 1 -->
<svg width="185pt" height="364pt"
 viewBox="0.00 0.00 184.50 364.00" xmlns="http://www.w3.org/2000/svg" xmlns:xlink="http://www.w3.org/1999/xlink">
<g id="graph0" class="graph" transform="scale(1 1) rotate(0) translate(4 360)">
<title>src/NexDisplay.h</title>
<polygon fill="white" stroke="transparent" points="-4,4 -4,-360 180.5,-360 180.5,4 -4,4"/>
<!-- Node1 -->
<g id="node1" class="node">
<title>Node1</title>
<g id="a_node1"><a xlink:title="Ponto de entrada único para o display Nextion.">
<polygon fill="#bfbfbf" stroke="black" points="7.5,-336.5 7.5,-355.5 105.5,-355.5 105.5,-336.5 7.5,-336.5"/>
<text text-anchor="middle" x="56.5" y="-343.5" font-family="Helvetica,sans-Serif" font-size="10.00">src/NexDisplay.h</text>
</a>
</g>
</g>
<!-- Node2 -->
<g id="node2" class="node">
<title>Node2</title>
<g id="a_node2"><a xlink:href="NexComponentes_8h.html" target="_top" xlink:title="Todos os componentes Nextion com API em português.">
<polygon fill="white" stroke="black" points="0,-280.5 0,-299.5 113,-299.5 113,-280.5 0,-280.5"/>
<text text-anchor="middle" x="56.5" y="-287.5" font-family="Helvetica,sans-Serif" font-size="10.00">NexComponentes.h</text>
</a>
</g>
</g>
<!-- Node1&#45;&gt;Node2 -->
<g id="edge1" class="edge">
<title>Node1&#45;&gt;Node2</title>
<path fill="none" stroke="midnightblue" d="M56.5,-336.08C56.5,-329.01 56.5,-318.86 56.5,-309.99"/>
<polygon fill="midnightblue" stroke="midnightblue" points="60,-309.75 56.5,-299.75 53,-309.75 60,-309.75"/>
</g>
<!-- Node3 -->
<g id="node3" class="node">
<title>Node3</title>
<g id="a_node3"><a xlink:href="NexToque_8h.html" target="_top" xlink:title="Componentes com suporte a eventos de toque.">
<polygon fill="white" stroke="black" points="19.5,-224.5 19.5,-243.5 93.5,-243.5 93.5,-224.5 19.5,-224.5"/>
<text text-anchor="middle" x="56.5" y="-231.5" font-family="Helvetica,sans-Serif" font-size="10.00">NexToque.h</text>
</a>
</g>
</g>
<!-- Node2&#45;&gt;Node3 -->
<g id="edge2" class="edge">
<title>Node2&#45;&gt;Node3</title>
<path fill="none" stroke="midnightblue" d="M56.5,-280.08C56.5,-273.01 56.5,-262.86 56.5,-253.99"/>
<polygon fill="midnightblue" stroke="midnightblue" points="60,-253.75 56.5,-243.75 53,-253.75 60,-253.75"/>
</g>
<!-- Node4 -->
<g id="node4" class="node">
<title>Node4</title>
<g id="a_node4"><a xlink:href="NexObjeto_8h.html" target="_top" xlink:title="Classe base de todos os componentes Nextion.">
<polygon fill="white" stroke="black" points="18,-168.5 18,-187.5 95,-187.5 95,-168.5 18,-168.5"/>
<text text-anchor="middle" x="56.5" y="-175.5" font-family="Helvetica,sans-Serif" font-size="10.00">NexObjeto.h</text>
</a>
</g>
</g>
<!-- Node3&#45;&gt;Node4 -->
<g id="edge3" class="edge">
<title>Node3&#45;&gt;Node4</title>
<path fill="none" stroke="midnightblue" d="M56.5,-224.08C56.5,-217.01 56.5,-206.86 56.5,-197.99"/>
<polygon fill="midnightblue" stroke="midnightblue" points="60,-197.75 56.5,-187.75 53,-197.75 60,-197.75"/>
</g>
<!-- Node5 -->
<g id="node5" class="node">
<title>Node5</title>
<g id="a_node5"><a xlink:title=" ">
<polygon fill="white" stroke="#bfbfbf" points="43,-0.5 43,-19.5 106,-19.5 106,-0.5 43,-0.5"/>
<text text-anchor="middle" x="74.5" y="-7.5" font-family="Helvetica,sans-Serif" font-size="10.00">Arduino.h</text>
</a>
</g>
</g>
<!-- Node4&#45;&gt;Node5 -->
<g id="edge4" class="edge">
<title>Node4&#45;&gt;Node5</title>
<path fill="none" stroke="midnightblue" d="M50.89,-168.48C38.33,-148.27 10.36,-96.13 27.5,-56 32.65,-43.95 42.78,-33.58 52.33,-25.84"/>
<polygon fill="midnightblue" stroke="midnightblue" points="54.54,-28.55 60.42,-19.74 50.33,-22.96 54.54,-28.55"/>
</g>
<!-- Node6 -->
<g id="node6" class="node">
<title>Node6</title>
<g id="a_node6"><a xlink:href="NexConfig_8h.html" target="_top" xlink:title="Configuração global da biblioteca NextionUI.">
<polygon fill="white" stroke="black" points="36.5,-56.5 36.5,-75.5 112.5,-75.5 112.5,-56.5 36.5,-56.5"/>
<text text-anchor="middle" x="74.5" y="-63.5" font-family="Helvetica,sans-Serif" font-size="10.00">NexConfig.h</text>
</a>
</g>
</g>
<!-- Node4&#45;&gt;Node6 -->
<g id="edge5" class="edge">
<title>Node4&#45;&gt;Node6</title>
<path fill="none" stroke="midnightblue" d="M57.91,-168.37C60.82,-150.62 67.52,-109.67 71.46,-85.6"/>
<polygon fill="midnightblue" stroke="midnightblue" points="74.93,-86.03 73.09,-75.59 68.03,-84.89 74.93,-86.03"/>
</g>
<!-- Node7 -->
<g id="node7" class="node">
<title>Node7</title>
<g id="a_node7"><a xlink:href="NexHardware_8h.html" target="_top" xlink:title="Camada de hardware da biblioteca NextionUI.">
<polygon fill="white" stroke="black" points="84.5,-112.5 84.5,-131.5 176.5,-131.5 176.5,-112.5 84.5,-112.5"/>
<text text-anchor="middle" x="130.5" y="-119.5" font-family="Helvetica,sans-Serif" font-size="10.00">NexHardware.h</text>
</a>
</g>
</g>
<!-- Node4&#45;&gt;Node7 -->
<g id="edge7" class="edge">
<title>Node4&#45;&gt;Node7</title>
<path fill="none" stroke="midnightblue" d="M68.39,-168.32C79.65,-160.11 96.79,-147.6 110.21,-137.81"/>
<polygon fill="midnightblue" stroke="midnightblue" points="112.38,-140.56 118.39,-131.83 108.25,-134.9 112.38,-140.56"/>
</g>
<!-- Node6&#45;&gt;Node5 -->
<g id="edge6" class="edge">
<title>Node6&#45;&gt;Node5</title>
<path fill="none" stroke="midnightblue" d="M74.5,-56.08C74.5,-49.01 74.5,-38.86 74.5,-29.99"/>
<polygon fill="midnightblue" stroke="midnightblue" points="78,-29.75 74.5,-19.75 71,-29.75 78,-29.75"/>
</g>
<!-- Node7&#45;&gt;Node5 -->
<g id="edge8" class="edge">
<title>Node7&#45;&gt;Node5</title>
<path fill="none" stroke="midnightblue" d="M131.04,-112.47C131.5,-99.53 130.93,-74.46 121.5,-56 115.46,-44.17 105.05,-33.72 95.57,-25.87"/>
<polygon fill="midnightblue" stroke="midnightblue" points="97.64,-23.05 87.6,-19.68 93.35,-28.58 97.64,-23.05"/>
</g>
<!-- Node7&#45;&gt;Node6 -->
<g id="edge9" class="edge">
<title>Node7&#45;&gt;Node6</title>
<path fill="none" stroke="midnightblue" d="M121.5,-112.32C113.31,-104.42 100.99,-92.55 91.03,-82.94"/>
<polygon fill="midnightblue" stroke="midnightblue" points="93.29,-80.26 83.66,-75.83 88.43,-85.29 93.29,-80.26"/>
</g>
</g>
</svg>
