<?xml version="1.0" encoding="UTF-8" standalone="no"?>
<!DOCTYPE svg PUBLIC "-//W3C//DTD SVG 1.1//EN"
 "http://www.w3.org/Graphics/SVG/1.1/DTD/svg11.dtd">
<!-- Generated by graphviz version 2.43.0 (0)
 -->
<!-- Title: src/NexDisplay.h Pages: 1 -->
<svg width="228pt" height="84pt"
 viewBox="0.00 0.00 227.50 84.00" xmlns="http://www.w3.org/2000/svg" xmlns:xlink="http://www.w3.org/1999/xlink">
<g id="graph0" class="graph" transform="scale(1 1) rotate(0) translate(4 80)">
<title>src/NexDisplay.h</title>
<polygon fill="white" stroke="transparent" points="-4,4 -4,-80 223.5,-80 223.5,4 -4,4"/>
<!-- Node1 -->
<g id="node1" class="node">
<title>Node1</title>
<g id="a_node1"><a xlink:title="Ponto de entrada único para o display Nextion.">
<polygon fill="#bfbfbf" stroke="black" points="64.5,-56.5 64.5,-75.5 162.5,-75.5 162.5,-56.5 64.5,-56.5"/>
<text text-anchor="middle" x="113.5" y="-63.5" font-family="Helvetica,sans-Serif" font-size="10.00">src/NexDisplay.h</text>
</a>
</g>
</g>
<!-- Node2 -->
<g id="node2" class="node">
<title>Node2</title>
<g id="a_node2"><a xlink:href="NexDisplay_8cpp.html" target="_top" xlink:title="Implementação do NexDisplay.">
<polygon fill="white" stroke="black" points="0,-0.5 0,-19.5 109,-19.5 109,-0.5 0,-0.5"/>
<text text-anchor="middle" x="54.5" y="-7.5" font-family="Helvetica,sans-Serif" font-size="10.00">src/NexDisplay.cpp</text>
</a>
</g>
</g>
<!-- Node1&#45;&gt;Node2 -->
<g id="edge1" class="edge">
<title>Node1&#45;&gt;Node2</title>
<path fill="none" stroke="midnightblue" d="M96.61,-49.54C86.09,-39.91 72.93,-27.87 64.15,-19.83"/>
<polygon fill="midnightblue" stroke="midnightblue" points="94.28,-52.15 104.02,-56.32 99.01,-46.99 94.28,-52.15"/>
</g>
<!-- Node3 -->
<g id="node3" class="node">
<title>Node3</title>
<g id="a_node3"><a xlink:href="NextionUI_8h.html" target="_top" xlink:title="Ponto único de inclusão da biblioteca NextionUI.">
<polygon fill="white" stroke="black" points="127.5,-0.5 127.5,-19.5 219.5,-19.5 219.5,-0.5 127.5,-0.5"/>
<text text-anchor="middle" x="173.5" y="-7.5" font-family="Helvetica,sans-Serif" font-size="10.00">src/NextionUI.h</text>
</a>
</g>
</g>
<!-- Node1&#45;&gt;Node3 -->
<g id="edge2" class="edge">
<title>Node1&#45;&gt;Node3</title>
<path fill="none" stroke="midnightblue" d="M130.68,-49.54C141.38,-39.91 154.76,-27.87 163.68,-19.83"/>
<polygon fill="midnightblue" stroke="midnightblue" points="128.23,-47.03 123.14,-56.32 132.91,-52.24 128.23,-47.03"/>
</g>
</g>
</svg>
