<?xml version="1.0" encoding="UTF-8" standalone="no"?>
<!DOCTYPE svg PUBLIC "-//W3C//DTD SVG 1.1//EN"
 "http://www.w3.org/Graphics/SVG/1.1/DTD/svg11.dtd">
<!-- Generated by graphviz version 2.43.0 (0)
 -->
<!-- Title: src/NexHardware.h Pages: 1 -->
<!--zoomable 308 -->
<svg id="main" version="1.1" xmlns="http://www.w3.org/2000/svg" xmlns:xlink="http://www.w3.org/1999/xlink" xml:space="preserve" onload="init(evt)">
<style type="text/css"><![CDATA[
.edge:hover path { stroke: red; }
.edge:hover polygon { stroke: red; fill: red; }
]]></style>
<script type="text/javascript"><![CDATA[
var edges = document.getElementsByTagName('g');
if (edges && edges.length) {
  for (var i=0;i<edges.length;i++) {
    if (edges[i].id.substr(0,4)=='edge') {
      edges[i].setAttribute('class','edge');
    }
  }
}
]]></script>
        <defs>
                <circle id="rim" cx="0" cy="0" r="7"/>
                <circle id="rim2" cx="0" cy="0" r="3.5"/>
                <g id="zoomPlus">
                        <use xlink:href="#rim" fill="#404040">
                                <set attributeName="fill" to="#808080" begin="zoomplus.mouseover" end="zoomplus.mouseout"/>
                        </use>
                        <path d="M-4,0h8M0,-4v8" fill="none" stroke="white" stroke-width="1.5" pointer-events="none"/>
                </g>
                <g id="zoomMin">
                        <use xlink:href="#rim" fill="#404040">
                                <set attributeName="fill" to="#808080" begin="zoomminus.mouseover" end="zoomminus.mouseout"/>
                        </use>
                        <path d="M-4,0h8" fill="none" stroke="white" stroke-width="1.5" pointer-events="none"/>
                </g>
                <g id="dirArrow">
                        <path fill="none" stroke="white" stroke-width="1.5" d="M0,-3.0v7 M-2.5,-0.5L0,-3.0L2.5,-0.5"/>
                </g>
               <g id="resetDef">
                       <use xlink:href="#rim2" fill="#404040">
                               <set attributeName="fill" to="#808080" begin="reset.mouseover" end="reset.mouseout"/>
                       </use>
               </g>
        </defs>

<script type="text/javascript">
var viewWidth = 636;
var viewHeight = 308;
var sectionId = 'dynsection-1';
</script>
<script xlink:href="svgpan.js"/>
<svg id="graph" class="graph">
<g id="viewport">
<title>src/NexHardware.h</title>
<polygon fill="white" stroke="transparent" points="-4,4 -4,-304 631.5,-304 631.5,4 -4,4"/>
<!-- Node1 -->
<g id="node1" class="node">
<title>Node1</title>
<g id="a_node1"><a xlink:title="Camada de hardware da biblioteca NextionUI.">
<polygon fill="#bfbfbf" stroke="black" points="94.5,-280.5 94.5,-299.5 204.5,-299.5 204.5,-280.5 94.5,-280.5"/>
<text text-anchor="middle" x="149.5" y="-287.5" font-family="Helvetica,sans-Serif" font-size="10.00">src/NexHardware.h</text>
</a>
</g>
</g>
<!-- Node2 -->
<g id="node2" class="node">
<title>Node2</title>
<g id="a_node2"><a xlink:href="NexHardware_8cpp.html" target="_top" xlink:title="Implementação da camada de hardware NextionUI.">
<polygon fill="white" stroke="black" points="0,-224.5 0,-243.5 121,-243.5 121,-224.5 0,-224.5"/>
<text text-anchor="middle" x="60.5" y="-231.5" font-family="Helvetica,sans-Serif" font-size="10.00">src/NexHardware.cpp</text>
</a>
</g>
</g>
<!-- Node1&#45;&gt;Node2 -->
<g id="edge1" class="edge">
<title>Node1&#45;&gt;Node2</title>
<path fill="none" stroke="midnightblue" d="M126.26,-274.9C109.94,-265 88.63,-252.07 74.76,-243.65"/>
<polygon fill="midnightblue" stroke="midnightblue" points="124.84,-278.13 135.2,-280.32 128.47,-272.14 124.84,-278.13"/>
</g>
<!-- Node3 -->
<g id="node3" class="node">
<title>Node3</title>
<g id="a_node3"><a xlink:href="NexObjeto_8h.html" target="_top" xlink:title="Classe base de todos os componentes Nextion.">
<polygon fill="white" stroke="black" points="224,-224.5 224,-243.5 319,-243.5 319,-224.5 224,-224.5"/>
<text text-anchor="middle" x="271.5" y="-231.5" font-family="Helvetica,sans-Serif" font-size="10.00">src/NexObjeto.h</text>
</a>
</g>
</g>
<!-- Node1&#45;&gt;Node3 -->
<g id="edge2" class="edge">
<title>Node1&#45;&gt;Node3</title>
<path fill="none" stroke="midnightblue" d="M178.04,-276.37C200.89,-266.26 232.31,-252.35 252.26,-243.52"/>
<polygon fill="midnightblue" stroke="midnightblue" points="176.56,-273.2 168.83,-280.44 179.39,-279.6 176.56,-273.2"/>
</g>
<!-- Node5 -->
<g id="node5" class="node">
<title>Node5</title>
<g id="a_node5"><a xlink:href="NextionUI_8h.html" target="_top" xlink:title="Ponto único de inclusão da biblioteca NextionUI.">
<polygon fill="white" stroke="black" points="301.5,-0.5 301.5,-19.5 393.5,-19.5 393.5,-0.5 301.5,-0.5"/>
<text text-anchor="middle" x="347.5" y="-7.5" font-family="Helvetica,sans-Serif" font-size="10.00">src/NextionUI.h</text>
</a>
</g>
</g>
<!-- Node1&#45;&gt;Node5 -->
<g id="edge13" class="edge">
<title>Node1&#45;&gt;Node5</title>
<path fill="none" stroke="midnightblue" d="M149.5,-270.25C149.5,-248.36 149.5,-211.05 149.5,-179 149.5,-179 149.5,-179 149.5,-121 149.5,-51.89 242.82,-25.83 301.33,-16.28"/>
<polygon fill="midnightblue" stroke="midnightblue" points="146,-270.44 149.5,-280.44 153,-270.44 146,-270.44"/>
</g>
<!-- Node4 -->
<g id="node4" class="node">
<title>Node4</title>
<g id="a_node4"><a xlink:href="NexObjeto_8cpp.html" target="_top" xlink:title="Implementação da classe base NexObjeto.">
<polygon fill="white" stroke="black" points="177.5,-168.5 177.5,-187.5 283.5,-187.5 283.5,-168.5 177.5,-168.5"/>
<text text-anchor="middle" x="230.5" y="-175.5" font-family="Helvetica,sans-Serif" font-size="10.00">src/NexObjeto.cpp</text>
</a>
</g>
</g>
<!-- Node3&#45;&gt;Node4 -->
<g id="edge3" class="edge">
<title>Node3&#45;&gt;Node4</title>
<path fill="none" stroke="midnightblue" d="M258.48,-215.86C251.38,-206.5 242.9,-195.33 237.14,-187.75"/>
<polygon fill="midnightblue" stroke="midnightblue" points="255.89,-218.24 264.73,-224.08 261.47,-214 255.89,-218.24"/>
</g>
<!-- Node3&#45;&gt;Node5 -->
<g id="edge4" class="edge">
<title>Node3&#45;&gt;Node5</title>
<path fill="none" stroke="midnightblue" d="M280.6,-214.96C284.52,-206.83 289,-197.05 292.5,-188 316.99,-124.67 338.47,-45.49 345.27,-19.61"/>
<polygon fill="midnightblue" stroke="midnightblue" points="277.33,-213.67 276.05,-224.19 283.61,-216.77 277.33,-213.67"/>
</g>
<!-- Node6 -->
<g id="node6" class="node">
<title>Node6</title>
<g id="a_node6"><a xlink:href="NexToque_8h.html" target="_top" xlink:title="Componentes com suporte a eventos de toque.">
<polygon fill="white" stroke="black" points="369,-168.5 369,-187.5 460,-187.5 460,-168.5 369,-168.5"/>
<text text-anchor="middle" x="414.5" y="-175.5" font-family="Helvetica,sans-Serif" font-size="10.00">src/NexToque.h</text>
</a>
</g>
</g>
<!-- Node3&#45;&gt;Node6 -->
<g id="edge5" class="edge">
<title>Node3&#45;&gt;Node6</title>
<path fill="none" stroke="midnightblue" d="M303.53,-220.91C330.41,-210.75 368.14,-196.51 391.95,-187.52"/>
<polygon fill="midnightblue" stroke="midnightblue" points="302.28,-217.64 294.16,-224.44 304.75,-224.19 302.28,-217.64"/>
</g>
<!-- Node6&#45;&gt;Node5 -->
<g id="edge11" class="edge">
<title>Node6&#45;&gt;Node5</title>
<path fill="none" stroke="midnightblue" d="M393.78,-161.71C384.61,-153.85 374.55,-143.51 368.5,-132 348.45,-93.88 346.97,-40.58 347.23,-19.79"/>
<polygon fill="midnightblue" stroke="midnightblue" points="391.83,-164.64 401.81,-168.2 396.22,-159.19 391.83,-164.64"/>
</g>
<!-- Node7 -->
<g id="node7" class="node">
<title>Node7</title>
<g id="a_node7"><a xlink:href="NexComponentes_8h.html" target="_top" xlink:title="Todos os componentes Nextion com API em português.">
<polygon fill="white" stroke="black" points="377.5,-112.5 377.5,-131.5 507.5,-131.5 507.5,-112.5 377.5,-112.5"/>
<text text-anchor="middle" x="442.5" y="-119.5" font-family="Helvetica,sans-Serif" font-size="10.00">src/NexComponentes.h</text>
</a>
</g>
</g>
<!-- Node6&#45;&gt;Node7 -->
<g id="edge6" class="edge">
<title>Node6&#45;&gt;Node7</title>
<path fill="none" stroke="midnightblue" d="M423.84,-158.98C428.59,-149.82 434.16,-139.09 437.96,-131.75"/>
<polygon fill="midnightblue" stroke="midnightblue" points="420.62,-157.59 419.12,-168.08 426.83,-160.82 420.62,-157.59"/>
</g>
<!-- Node10 -->
<g id="node10" class="node">
<title>Node10</title>
<g id="a_node10"><a xlink:href="NexToque_8cpp.html" target="_top" xlink:title="Implementação de NexToque.">
<polygon fill="white" stroke="black" points="525.5,-112.5 525.5,-131.5 627.5,-131.5 627.5,-112.5 525.5,-112.5"/>
<text text-anchor="middle" x="576.5" y="-119.5" font-family="Helvetica,sans-Serif" font-size="10.00">src/NexToque.cpp</text>
</a>
</g>
</g>
<!-- Node6&#45;&gt;Node10 -->
<g id="edge12" class="edge">
<title>Node6&#45;&gt;Node10</title>
<path fill="none" stroke="midnightblue" d="M449.98,-165.17C480.49,-155 523.74,-140.59 550.95,-131.52"/>
<polygon fill="midnightblue" stroke="midnightblue" points="448.55,-161.96 440.17,-168.44 450.76,-168.6 448.55,-161.96"/>
</g>
<!-- Node7&#45;&gt;Node5 -->
<g id="edge10" class="edge">
<title>Node7&#45;&gt;Node5</title>
<path fill="none" stroke="midnightblue" d="M428.32,-104.59C407.84,-80.87 370.71,-37.87 354.92,-19.59"/>
<polygon fill="midnightblue" stroke="midnightblue" points="425.86,-107.09 435.05,-112.37 431.16,-102.51 425.86,-107.09"/>
</g>
<!-- Node8 -->
<g id="node8" class="node">
<title>Node8</title>
<g id="a_node8"><a xlink:href="NexDisplay_8h.html" target="_top" xlink:title="Ponto de entrada único para o display Nextion.">
<polygon fill="white" stroke="black" points="415.5,-56.5 415.5,-75.5 513.5,-75.5 513.5,-56.5 415.5,-56.5"/>
<text text-anchor="middle" x="464.5" y="-63.5" font-family="Helvetica,sans-Serif" font-size="10.00">src/NexDisplay.h</text>
</a>
</g>
</g>
<!-- Node7&#45;&gt;Node8 -->
<g id="edge7" class="edge">
<title>Node7&#45;&gt;Node8</title>
<path fill="none" stroke="midnightblue" d="M449.96,-102.69C453.67,-93.59 457.98,-83.01 460.93,-75.75"/>
<polygon fill="midnightblue" stroke="midnightblue" points="446.66,-101.5 446.13,-112.08 453.15,-104.14 446.66,-101.5"/>
</g>
<!-- Node8&#45;&gt;Node5 -->
<g id="edge9" class="edge">
<title>Node8&#45;&gt;Node5</title>
<path fill="none" stroke="midnightblue" d="M436.84,-52.23C414.95,-42.13 385,-28.31 365.95,-19.52"/>
<polygon fill="midnightblue" stroke="midnightblue" points="435.41,-55.43 445.96,-56.44 438.35,-49.08 435.41,-55.43"/>
</g>
<!-- Node9 -->
<g id="node9" class="node">
<title>Node9</title>
<g id="a_node9"><a xlink:href="NexDisplay_8cpp.html" target="_top" xlink:title="Implementação do NexDisplay.">
<polygon fill="white" stroke="black" points="412,-0.5 412,-19.5 521,-19.5 521,-0.5 412,-0.5"/>
<text text-anchor="middle" x="466.5" y="-7.5" font-family="Helvetica,sans-Serif" font-size="10.00">src/NexDisplay.cpp</text>
</a>
</g>
</g>
<!-- Node8&#45;&gt;Node9 -->
<g id="edge8" class="edge">
<title>Node8&#45;&gt;Node9</title>
<path fill="none" stroke="midnightblue" d="M465.21,-45.8C465.54,-36.91 465.92,-26.78 466.18,-19.75"/>
<polygon fill="midnightblue" stroke="midnightblue" points="461.7,-45.96 464.83,-56.08 468.7,-46.22 461.7,-45.96"/>
</g>
</g>
</svg>
        <g id="navigator" transform="translate(0 0)" fill="#404254">
                <rect fill="#f2f5e9" fill-opacity="0.5" stroke="#606060" stroke-width=".5" x="0" y="0" width="60" height="60"/>
                <use id="zoomplus" xlink:href="#zoomPlus" x="17" y="9" onmousedown="handleZoom(evt,'in')"/>
                <use id="zoomminus" xlink:href="#zoomMin" x="42" y="9" onmousedown="handleZoom(evt,'out')"/>
                <use id="reset" xlink:href="#resetDef" x="30" y="36" onmousedown="handleReset()"/>
                <g id="arrowUp" xlink:href="#dirArrow" transform="translate(30 24)" onmousedown="handlePan(0,-1)">
                  <use xlink:href="#rim" fill="#404040">
                        <set attributeName="fill" to="#808080" begin="arrowUp.mouseover" end="arrowUp.mouseout"/>
                  </use>
                  <path fill="none" stroke="white" stroke-width="1.5" d="M0,-3.0v7 M-2.5,-0.5L0,-3.0L2.5,-0.5"/>
                </g>
                <g id="arrowRight" xlink:href="#dirArrow" transform="rotate(90) translate(36 -43)" onmousedown="handlePan(1,0)">
                  <use xlink:href="#rim" fill="#404040">
                        <set attributeName="fill" to="#808080" begin="arrowRight.mouseover" end="arrowRight.mouseout"/>
                  </use>
                  <path fill="none" stroke="white" stroke-width="1.5" d="M0,-3.0v7 M-2.5,-0.5L0,-3.0L2.5,-0.5"/>
                </g>
                <g id="arrowDown" xlink:href="#dirArrow" transform="rotate(180) translate(-30 -48)" onmousedown="handlePan(0,1)">
                  <use xlink:href="#rim" fill="#404040">
                        <set attributeName="fill" to="#808080" begin="arrowDown.mouseover" end="arrowDown.mouseout"/>
                  </use>
                  <path fill="none" stroke="white" stroke-width="1.5" d="M0,-3.0v7 M-2.5,-0.5L0,-3.0L2.5,-0.5"/>
                </g>
                <g id="arrowLeft" xlink:href="#dirArrow" transform="rotate(270) translate(-36 17)" onmousedown="handlePan(-1,0)">
                  <use xlink:href="#rim" fill="#404040">
                        <set attributeName="fill" to="#808080" begin="arrowLeft.mouseover" end="arrowLeft.mouseout"/>
                  </use>
                  <path fill="none" stroke="white" stroke-width="1.5" d="M0,-3.0v7 M-2.5,-0.5L0,-3.0L2.5,-0.5"/>
                </g>
        </g>
        <svg viewBox="0 0 15 15" width="100%" height="30px" preserveAspectRatio="xMaxYMin meet">
         <g id="arrow_out" transform="scale(0.3 0.3)">
          <a xlink:href="NexHardware_8h__dep__incl_org.svg" target="_base">
           <rect id="button" ry="5" rx="5" y="6" x="6" height="38" width="38"
                fill="#f2f5e9" fill-opacity="0.5" stroke="#606060" stroke-width="1.0"/>
           <path id="arrow"
             d="M 11.500037,31.436501 C 11.940474,20.09759 22.043105,11.32322 32.158766,21.979434 L 37.068811,17.246167 C 37.068811,17.246167 37.088388,32 37.088388,32 L 22.160133,31.978069 C 22.160133,31.978069 26.997745,27.140456 26.997745,27.140456 C 18.528582,18.264221 13.291696,25.230495 11.500037,31.436501 z"
             style="fill:#404040;"/>
          </a>
         </g>
        </svg>
</svg>
