<?xml version="1.0" encoding="UTF-8" standalone="no"?>
<!DOCTYPE svg PUBLIC "-//W3C//DTD SVG 1.1//EN"
 "http://www.w3.org/Graphics/SVG/1.1/DTD/svg11.dtd">
<!-- Generated by graphviz version 2.43.0 (0)
 -->
<!-- Title: src/NexHardware.h Pages: 1 -->
<svg width="134pt" height="140pt"
 viewBox="0.00 0.00 134.00 140.00" xmlns="http://www.w3.org/2000/svg" xmlns:xlink="http://www.w3.org/1999/xlink">
<g id="graph0" class="graph" transform="scale(1 1) rotate(0) translate(4 136)">
<title>src/NexHardware.h</title>
<polygon fill="white" stroke="transparent" points="-4,4 -4,-136 130,-136 130,4 -4,4"/>
<!-- Node1 -->
<g id="node1" class="node">
<title>Node1</title>
<g id="a_node1"><a xlink:title="Camada de hardware da biblioteca NextionUI.">
<polygon fill="#bfbfbf" stroke="black" points="0,-112.5 0,-131.5 110,-131.5 110,-112.5 0,-112.5"/>
<text text-anchor="middle" x="55" y="-119.5" font-family="Helvetica,sans-Serif" font-size="10.00">src/NexHardware.h</text>
</a>
</g>
</g>
<!-- Node2 -->
<g id="node2" class="node">
<title>Node2</title>
<g id="a_node2"><a xlink:title=" ">
<polygon fill="white" stroke="#bfbfbf" points="23.5,-0.5 23.5,-19.5 86.5,-19.5 86.5,-0.5 23.5,-0.5"/>
<text text-anchor="middle" x="55" y="-7.5" font-family="Helvetica,sans-Serif" font-size="10.00">Arduino.h</text>
</a>
</g>
</g>
<!-- Node1&#45;&gt;Node2 -->
<g id="edge1" class="edge">
<title>Node1&#45;&gt;Node2</title>
<path fill="none" stroke="midnightblue" d="M51.03,-112.23C45.89,-99.8 37.91,-76.31 41,-56 42.37,-47 45.19,-37.33 47.95,-29.26"/>
<polygon fill="midnightblue" stroke="midnightblue" points="51.27,-30.37 51.4,-19.78 44.69,-27.98 51.27,-30.37"/>
</g>
<!-- Node3 -->
<g id="node3" class="node">
<title>Node3</title>
<g id="a_node3"><a xlink:href="NexConfig_8h.html" target="_top" xlink:title="Configuração global da biblioteca NextionUI.">
<polygon fill="white" stroke="black" points="50,-56.5 50,-75.5 126,-75.5 126,-56.5 50,-56.5"/>
<text text-anchor="middle" x="88" y="-63.5" font-family="Helvetica,sans-Serif" font-size="10.00">NexConfig.h</text>
</a>
</g>
</g>
<!-- Node1&#45;&gt;Node3 -->
<g id="edge2" class="edge">
<title>Node1&#45;&gt;Node3</title>
<path fill="none" stroke="midnightblue" d="M60.45,-112.08C65.01,-104.61 71.67,-93.72 77.29,-84.52"/>
<polygon fill="midnightblue" stroke="midnightblue" points="80.42,-86.11 82.65,-75.75 74.45,-82.46 80.42,-86.11"/>
</g>
<!-- Node3&#45;&gt;Node2 -->
<g id="edge3" class="edge">
<title>Node3&#45;&gt;Node2</title>
<path fill="none" stroke="midnightblue" d="M82.55,-56.08C77.99,-48.61 71.33,-37.72 65.71,-28.52"/>
<polygon fill="midnightblue" stroke="midnightblue" points="68.55,-26.46 60.35,-19.75 62.58,-30.11 68.55,-26.46"/>
</g>
</g>
</svg>
