<?xml version="1.0" encoding="UTF-8" standalone="no"?>
<!DOCTYPE svg PUBLIC "-//W3C//DTD SVG 1.1//EN"
 "http://www.w3.org/Graphics/SVG/1.1/DTD/svg11.dtd">
<!-- Generated by graphviz version 2.43.0 (0)
 -->
<!-- Title: src/NexObjeto.cpp Pages: 1 -->
<svg width="167pt" height="252pt"
 viewBox="0.00 0.00 166.50 252.00" xmlns="http://www.w3.org/2000/svg" xmlns:xlink="http://www.w3.org/1999/xlink">
<g id="graph0" class="graph" transform="scale(1 1) rotate(0) translate(4 248)">
<title>src/NexObjeto.cpp</title>
<polygon fill="white" stroke="transparent" points="-4,4 -4,-248 162.5,-248 162.5,4 -4,4"/>
<!-- Node1 -->
<g id="node1" class="node">
<title>Node1</title>
<g id="a_node1"><a xlink:title="Implementação da classe base NexObjeto.">
<polygon fill="#bfbfbf" stroke="black" points="27.5,-224.5 27.5,-243.5 133.5,-243.5 133.5,-224.5 27.5,-224.5"/>
<text text-anchor="middle" x="80.5" y="-231.5" font-family="Helvetica,sans-Serif" font-size="10.00">src/NexObjeto.cpp</text>
</a>
</g>
</g>
<!-- Node2 -->
<g id="node2" class="node">
<title>Node2</title>
<g id="a_node2"><a xlink:href="NexObjeto_8h.html" target="_top" xlink:title="Classe base de todos os componentes Nextion.">
<polygon fill="white" stroke="black" points="0,-168.5 0,-187.5 77,-187.5 77,-168.5 0,-168.5"/>
<text text-anchor="middle" x="38.5" y="-175.5" font-family="Helvetica,sans-Serif" font-size="10.00">NexObjeto.h</text>
</a>
</g>
</g>
<!-- Node1&#45;&gt;Node2 -->
<g id="edge1" class="edge">
<title>Node1&#45;&gt;Node2</title>
<path fill="none" stroke="midnightblue" d="M73.56,-224.08C67.57,-216.38 58.75,-205.03 51.45,-195.65"/>
<polygon fill="midnightblue" stroke="midnightblue" points="54.21,-193.5 45.31,-187.75 48.68,-197.79 54.21,-193.5"/>
</g>
<!-- Node6 -->
<g id="node6" class="node">
<title>Node6</title>
<g id="a_node6"><a xlink:title=" ">
<polygon fill="white" stroke="#bfbfbf" points="95.5,-168.5 95.5,-187.5 151.5,-187.5 151.5,-168.5 95.5,-168.5"/>
<text text-anchor="middle" x="123.5" y="-175.5" font-family="Helvetica,sans-Serif" font-size="10.00">stdarg.h</text>
</a>
</g>
</g>
<!-- Node1&#45;&gt;Node6 -->
<g id="edge8" class="edge">
<title>Node1&#45;&gt;Node6</title>
<path fill="none" stroke="midnightblue" d="M87.6,-224.08C93.74,-216.38 102.77,-205.03 110.24,-195.65"/>
<polygon fill="midnightblue" stroke="midnightblue" points="113.04,-197.75 116.53,-187.75 107.56,-193.39 113.04,-197.75"/>
</g>
<!-- Node3 -->
<g id="node3" class="node">
<title>Node3</title>
<g id="a_node3"><a xlink:title=" ">
<polygon fill="white" stroke="#bfbfbf" points="25,-0.5 25,-19.5 88,-19.5 88,-0.5 25,-0.5"/>
<text text-anchor="middle" x="56.5" y="-7.5" font-family="Helvetica,sans-Serif" font-size="10.00">Arduino.h</text>
</a>
</g>
</g>
<!-- Node2&#45;&gt;Node3 -->
<g id="edge2" class="edge">
<title>Node2&#45;&gt;Node3</title>
<path fill="none" stroke="midnightblue" d="M32.89,-168.48C20.33,-148.27 -7.64,-96.13 9.5,-56 14.65,-43.95 24.78,-33.58 34.33,-25.84"/>
<polygon fill="midnightblue" stroke="midnightblue" points="36.54,-28.55 42.42,-19.74 32.33,-22.96 36.54,-28.55"/>
</g>
<!-- Node4 -->
<g id="node4" class="node">
<title>Node4</title>
<g id="a_node4"><a xlink:href="NexConfig_8h.html" target="_top" xlink:title="Configuração global da biblioteca NextionUI.">
<polygon fill="white" stroke="black" points="18.5,-56.5 18.5,-75.5 94.5,-75.5 94.5,-56.5 18.5,-56.5"/>
<text text-anchor="middle" x="56.5" y="-63.5" font-family="Helvetica,sans-Serif" font-size="10.00">NexConfig.h</text>
</a>
</g>
</g>
<!-- Node2&#45;&gt;Node4 -->
<g id="edge3" class="edge">
<title>Node2&#45;&gt;Node4</title>
<path fill="none" stroke="midnightblue" d="M39.91,-168.37C42.82,-150.62 49.52,-109.67 53.46,-85.6"/>
<polygon fill="midnightblue" stroke="midnightblue" points="56.93,-86.03 55.09,-75.59 50.03,-84.89 56.93,-86.03"/>
</g>
<!-- Node5 -->
<g id="node5" class="node">
<title>Node5</title>
<g id="a_node5"><a xlink:href="NexHardware_8h.html" target="_top" xlink:title="Camada de hardware da biblioteca NextionUI.">
<polygon fill="white" stroke="black" points="66.5,-112.5 66.5,-131.5 158.5,-131.5 158.5,-112.5 66.5,-112.5"/>
<text text-anchor="middle" x="112.5" y="-119.5" font-family="Helvetica,sans-Serif" font-size="10.00">NexHardware.h</text>
</a>
</g>
</g>
<!-- Node2&#45;&gt;Node5 -->
<g id="edge5" class="edge">
<title>Node2&#45;&gt;Node5</title>
<path fill="none" stroke="midnightblue" d="M50.39,-168.32C61.65,-160.11 78.79,-147.6 92.21,-137.81"/>
<polygon fill="midnightblue" stroke="midnightblue" points="94.38,-140.56 100.39,-131.83 90.25,-134.9 94.38,-140.56"/>
</g>
<!-- Node4&#45;&gt;Node3 -->
<g id="edge4" class="edge">
<title>Node4&#45;&gt;Node3</title>
<path fill="none" stroke="midnightblue" d="M56.5,-56.08C56.5,-49.01 56.5,-38.86 56.5,-29.99"/>
<polygon fill="midnightblue" stroke="midnightblue" points="60,-29.75 56.5,-19.75 53,-29.75 60,-29.75"/>
</g>
<!-- Node5&#45;&gt;Node3 -->
<g id="edge6" class="edge">
<title>Node5&#45;&gt;Node3</title>
<path fill="none" stroke="midnightblue" d="M113.04,-112.47C113.5,-99.53 112.93,-74.46 103.5,-56 97.46,-44.17 87.05,-33.72 77.57,-25.87"/>
<polygon fill="midnightblue" stroke="midnightblue" points="79.64,-23.05 69.6,-19.68 75.35,-28.58 79.64,-23.05"/>
</g>
<!-- Node5&#45;&gt;Node4 -->
<g id="edge7" class="edge">
<title>Node5&#45;&gt;Node4</title>
<path fill="none" stroke="midnightblue" d="M103.5,-112.32C95.31,-104.42 82.99,-92.55 73.03,-82.94"/>
<polygon fill="midnightblue" stroke="midnightblue" points="75.29,-80.26 65.66,-75.83 70.43,-85.29 75.29,-80.26"/>
</g>
</g>
</svg>
