<?xml version="1.0" encoding="UTF-8" standalone="no"?>
<!DOCTYPE svg PUBLIC "-//W3C//DTD SVG 1.1//EN"
 "http://www.w3.org/Graphics/SVG/1.1/DTD/svg11.dtd">
<!-- Generated by graphviz version 2.43.0 (0)
 -->
<!-- Title: src/NexObjeto.h Pages: 1 -->
<svg width="176pt" height="196pt"
 viewBox="0.00 0.00 175.50 196.00" xmlns="http://www.w3.org/2000/svg" xmlns:xlink="http://www.w3.org/1999/xlink">
<g id="graph0" class="graph" transform="scale(1 1) rotate(0) translate(4 192)">
<title>src/NexObjeto.h</title>
<polygon fill="white" stroke="transparent" points="-4,4 -4,-192 171.5,-192 171.5,4 -4,4"/>
<!-- Node1 -->
<g id="node1" class="node">
<title>Node1</title>
<g id="a_node1"><a xlink:title="Classe base de todos os componentes Nextion.">
<polygon fill="#bfbfbf" stroke="black" points="0,-168.5 0,-187.5 95,-187.5 95,-168.5 0,-168.5"/>
<text text-anchor="middle" x="47.5" y="-175.5" font-family="Helvetica,sans-Serif" font-size="10.00">src/NexObjeto.h</text>
</a>
</g>
</g>
<!-- Node2 -->
<g id="node2" class="node">
<title>Node2</title>
<g id="a_node2"><a xlink:title=" ">
<polygon fill="white" stroke="#bfbfbf" points="34,-0.5 34,-19.5 97,-19.5 97,-0.5 34,-0.5"/>
<text text-anchor="middle" x="65.5" y="-7.5" font-family="Helvetica,sans-Serif" font-size="10.00">Arduino.h</text>
</a>
</g>
</g>
<!-- Node1&#45;&gt;Node2 -->
<g id="edge1" class="edge">
<title>Node1&#45;&gt;Node2</title>
<path fill="none" stroke="midnightblue" d="M41.89,-168.48C29.33,-148.27 1.36,-96.13 18.5,-56 23.65,-43.95 33.78,-33.58 43.33,-25.84"/>
<polygon fill="midnightblue" stroke="midnightblue" points="45.54,-28.55 51.42,-19.74 41.33,-22.96 45.54,-28.55"/>
</g>
<!-- Node3 -->
<g id="node3" class="node">
<title>Node3</title>
<g id="a_node3"><a xlink:href="NexConfig_8h.html" target="_top" xlink:title="Configuração global da biblioteca NextionUI.">
<polygon fill="white" stroke="black" points="27.5,-56.5 27.5,-75.5 103.5,-75.5 103.5,-56.5 27.5,-56.5"/>
<text text-anchor="middle" x="65.5" y="-63.5" font-family="Helvetica,sans-Serif" font-size="10.00">NexConfig.h</text>
</a>
</g>
</g>
<!-- Node1&#45;&gt;Node3 -->
<g id="edge2" class="edge">
<title>Node1&#45;&gt;Node3</title>
<path fill="none" stroke="midnightblue" d="M48.91,-168.37C51.82,-150.62 58.52,-109.67 62.46,-85.6"/>
<polygon fill="midnightblue" stroke="midnightblue" points="65.93,-86.03 64.09,-75.59 59.03,-84.89 65.93,-86.03"/>
</g>
<!-- Node4 -->
<g id="node4" class="node">
<title>Node4</title>
<g id="a_node4"><a xlink:href="NexHardware_8h.html" target="_top" xlink:title="Camada de hardware da biblioteca NextionUI.">
<polygon fill="white" stroke="black" points="75.5,-112.5 75.5,-131.5 167.5,-131.5 167.5,-112.5 75.5,-112.5"/>
<text text-anchor="middle" x="121.5" y="-119.5" font-family="Helvetica,sans-Serif" font-size="10.00">NexHardware.h</text>
</a>
</g>
</g>
<!-- Node1&#45;&gt;Node4 -->
<g id="edge4" class="edge">
<title>Node1&#45;&gt;Node4</title>
<path fill="none" stroke="midnightblue" d="M59.39,-168.32C70.65,-160.11 87.79,-147.6 101.21,-137.81"/>
<polygon fill="midnightblue" stroke="midnightblue" points="103.38,-140.56 109.39,-131.83 99.25,-134.9 103.38,-140.56"/>
</g>
<!-- Node3&#45;&gt;Node2 -->
<g id="edge3" class="edge">
<title>Node3&#45;&gt;Node2</title>
<path fill="none" stroke="midnightblue" d="M65.5,-56.08C65.5,-49.01 65.5,-38.86 65.5,-29.99"/>
<polygon fill="midnightblue" stroke="midnightblue" points="69,-29.75 65.5,-19.75 62,-29.75 69,-29.75"/>
</g>
<!-- Node4&#45;&gt;Node2 -->
<g id="edge5" class="edge">
<title>Node4&#45;&gt;Node2</title>
<path fill="none" stroke="midnightblue" d="M122.04,-112.47C122.5,-99.53 121.93,-74.46 112.5,-56 106.46,-44.17 96.05,-33.72 86.57,-25.87"/>
<polygon fill="midnightblue" stroke="midnightblue" points="88.64,-23.05 78.6,-19.68 84.35,-28.58 88.64,-23.05"/>
</g>
<!-- Node4&#45;&gt;Node3 -->
<g id="edge6" class="edge">
<title>Node4&#45;&gt;Node3</title>
<path fill="none" stroke="midnightblue" d="M112.5,-112.32C104.31,-104.42 91.99,-92.55 82.03,-82.94"/>
<polygon fill="midnightblue" stroke="midnightblue" points="84.29,-80.26 74.66,-75.83 79.43,-85.29 84.29,-80.26"/>
</g>
</g>
</svg>
