<?xml version="1.0" encoding="UTF-8" standalone="no"?>
<!DOCTYPE svg PUBLIC "-//W3C//DTD SVG 1.1//EN"
 "http://www.w3.org/Graphics/SVG/1.1/DTD/svg11.dtd">
<!-- Generated by graphviz version 2.43.0 (0)
 -->
<!-- Title: src/NexObjeto.h Pages: 1 -->
<svg width="458pt" height="252pt"
 viewBox="0.00 0.00 458.00 252.00" xmlns="http://www.w3.org/2000/svg" xmlns:xlink="http://www.w3.org/1999/xlink">
<g id="graph0" class="graph" transform="scale(1 1) rotate(0) translate(4 248)">
<title>src/NexObjeto.h</title>
<polygon fill="white" stroke="transparent" points="-4,4 -4,-248 454,-248 454,4 -4,4"/>
<!-- Node1 -->
<g id="node1" class="node">
<title>Node1</title>
<g id="a_node1"><a xlink:title="Classe base de todos os componentes Nextion.">
<polygon fill="#bfbfbf" stroke="black" points="86.5,-224.5 86.5,-243.5 181.5,-243.5 181.5,-224.5 86.5,-224.5"/>
<text text-anchor="middle" x="134" y="-231.5" font-family="Helvetica,sans-Serif" font-size="10.00">src/NexObjeto.h</text>
</a>
</g>
</g>
<!-- Node2 -->
<g id="node2" class="node">
<title>Node2</title>
<g id="a_node2"><a xlink:href="NexObjeto_8cpp.html" target="_top" xlink:title="Implementação da classe base NexObjeto.">
<polygon fill="white" stroke="black" points="0,-168.5 0,-187.5 106,-187.5 106,-168.5 0,-168.5"/>
<text text-anchor="middle" x="53" y="-175.5" font-family="Helvetica,sans-Serif" font-size="10.00">src/NexObjeto.cpp</text>
</a>
</g>
</g>
<!-- Node1&#45;&gt;Node2 -->
<g id="edge1" class="edge">
<title>Node1&#45;&gt;Node2</title>
<path fill="none" stroke="midnightblue" d="M112.43,-218.62C97.64,-208.76 78.49,-195.99 65.98,-187.65"/>
<polygon fill="midnightblue" stroke="midnightblue" points="110.72,-221.69 120.99,-224.32 114.61,-215.86 110.72,-221.69"/>
</g>
<!-- Node3 -->
<g id="node3" class="node">
<title>Node3</title>
<g id="a_node3"><a xlink:href="NextionUI_8h.html" target="_top" xlink:title="Ponto único de inclusão da biblioteca NextionUI.">
<polygon fill="white" stroke="black" points="126,-0.5 126,-19.5 218,-19.5 218,-0.5 126,-0.5"/>
<text text-anchor="middle" x="172" y="-7.5" font-family="Helvetica,sans-Serif" font-size="10.00">src/NextionUI.h</text>
</a>
</g>
</g>
<!-- Node1&#45;&gt;Node3 -->
<g id="edge2" class="edge">
<title>Node1&#45;&gt;Node3</title>
<path fill="none" stroke="midnightblue" d="M137.2,-214.3C145.02,-168.64 164.84,-52.85 170.48,-19.88"/>
<polygon fill="midnightblue" stroke="midnightblue" points="133.73,-213.85 135.49,-224.3 140.63,-215.03 133.73,-213.85"/>
</g>
<!-- Node4 -->
<g id="node4" class="node">
<title>Node4</title>
<g id="a_node4"><a xlink:href="NexToque_8h.html" target="_top" xlink:title="Componentes com suporte a eventos de toque.">
<polygon fill="white" stroke="black" points="191.5,-168.5 191.5,-187.5 282.5,-187.5 282.5,-168.5 191.5,-168.5"/>
<text text-anchor="middle" x="237" y="-175.5" font-family="Helvetica,sans-Serif" font-size="10.00">src/NexToque.h</text>
</a>
</g>
</g>
<!-- Node1&#45;&gt;Node4 -->
<g id="edge3" class="edge">
<title>Node1&#45;&gt;Node4</title>
<path fill="none" stroke="midnightblue" d="M159.58,-219.59C178.62,-209.61 204.06,-196.27 220.49,-187.65"/>
<polygon fill="midnightblue" stroke="midnightblue" points="157.78,-216.58 150.55,-224.32 161.03,-222.78 157.78,-216.58"/>
</g>
<!-- Node4&#45;&gt;Node3 -->
<g id="edge9" class="edge">
<title>Node4&#45;&gt;Node3</title>
<path fill="none" stroke="midnightblue" d="M216.19,-161.76C207.01,-153.9 196.96,-143.56 191,-132 171.31,-93.82 170.87,-40.56 171.55,-19.78"/>
<polygon fill="midnightblue" stroke="midnightblue" points="214.26,-164.69 224.25,-168.23 218.64,-159.23 214.26,-164.69"/>
</g>
<!-- Node5 -->
<g id="node5" class="node">
<title>Node5</title>
<g id="a_node5"><a xlink:href="NexComponentes_8h.html" target="_top" xlink:title="Todos os componentes Nextion com API em português.">
<polygon fill="white" stroke="black" points="200,-112.5 200,-131.5 330,-131.5 330,-112.5 200,-112.5"/>
<text text-anchor="middle" x="265" y="-119.5" font-family="Helvetica,sans-Serif" font-size="10.00">src/NexComponentes.h</text>
</a>
</g>
</g>
<!-- Node4&#45;&gt;Node5 -->
<g id="edge4" class="edge">
<title>Node4&#45;&gt;Node5</title>
<path fill="none" stroke="midnightblue" d="M246.34,-158.98C251.09,-149.82 256.66,-139.09 260.46,-131.75"/>
<polygon fill="midnightblue" stroke="midnightblue" points="243.12,-157.59 241.62,-168.08 249.33,-160.82 243.12,-157.59"/>
</g>
<!-- Node8 -->
<g id="node8" class="node">
<title>Node8</title>
<g id="a_node8"><a xlink:href="NexToque_8cpp.html" target="_top" xlink:title="Implementação de NexToque.">
<polygon fill="white" stroke="black" points="348,-112.5 348,-131.5 450,-131.5 450,-112.5 348,-112.5"/>
<text text-anchor="middle" x="399" y="-119.5" font-family="Helvetica,sans-Serif" font-size="10.00">src/NexToque.cpp</text>
</a>
</g>
</g>
<!-- Node4&#45;&gt;Node8 -->
<g id="edge10" class="edge">
<title>Node4&#45;&gt;Node8</title>
<path fill="none" stroke="midnightblue" d="M272.48,-165.17C302.99,-155 346.24,-140.59 373.45,-131.52"/>
<polygon fill="midnightblue" stroke="midnightblue" points="271.05,-161.96 262.67,-168.44 273.26,-168.6 271.05,-161.96"/>
</g>
<!-- Node5&#45;&gt;Node3 -->
<g id="edge8" class="edge">
<title>Node5&#45;&gt;Node3</title>
<path fill="none" stroke="midnightblue" d="M251.12,-104.59C231.07,-80.87 194.72,-37.87 179.26,-19.59"/>
<polygon fill="midnightblue" stroke="midnightblue" points="248.57,-106.99 257.7,-112.37 253.92,-102.47 248.57,-106.99"/>
</g>
<!-- Node6 -->
<g id="node6" class="node">
<title>Node6</title>
<g id="a_node6"><a xlink:href="NexDisplay_8h.html" target="_top" xlink:title="Ponto de entrada único para o display Nextion.">
<polygon fill="white" stroke="black" points="238,-56.5 238,-75.5 336,-75.5 336,-56.5 238,-56.5"/>
<text text-anchor="middle" x="287" y="-63.5" font-family="Helvetica,sans-Serif" font-size="10.00">src/NexDisplay.h</text>
</a>
</g>
</g>
<!-- Node5&#45;&gt;Node6 -->
<g id="edge5" class="edge">
<title>Node5&#45;&gt;Node6</title>
<path fill="none" stroke="midnightblue" d="M272.46,-102.69C276.17,-93.59 280.48,-83.01 283.43,-75.75"/>
<polygon fill="midnightblue" stroke="midnightblue" points="269.16,-101.5 268.63,-112.08 275.65,-104.14 269.16,-101.5"/>
</g>
<!-- Node6&#45;&gt;Node3 -->
<g id="edge7" class="edge">
<title>Node6&#45;&gt;Node3</title>
<path fill="none" stroke="midnightblue" d="M259.52,-52.1C238.03,-42.01 208.78,-28.27 190.14,-19.52"/>
<polygon fill="midnightblue" stroke="midnightblue" points="258.24,-55.36 268.78,-56.44 261.21,-49.02 258.24,-55.36"/>
</g>
<!-- Node7 -->
<g id="node7" class="node">
<title>Node7</title>
<g id="a_node7"><a xlink:href="NexDisplay_8cpp.html" target="_top" xlink:title="Implementação do NexDisplay.">
<polygon fill="white" stroke="black" points="236.5,-0.5 236.5,-19.5 345.5,-19.5 345.5,-0.5 236.5,-0.5"/>
<text text-anchor="middle" x="291" y="-7.5" font-family="Helvetica,sans-Serif" font-size="10.00">src/NexDisplay.cpp</text>
</a>
</g>
</g>
<!-- Node6&#45;&gt;Node7 -->
<g id="edge6" class="edge">
<title>Node6&#45;&gt;Node7</title>
<path fill="none" stroke="midnightblue" d="M288.4,-46.1C289.06,-37.14 289.83,-26.86 290.35,-19.75"/>
<polygon fill="midnightblue" stroke="midnightblue" points="284.91,-45.85 287.66,-56.08 291.89,-46.37 284.91,-45.85"/>
</g>
</g>
</svg>
