<?xml version="1.0" encoding="UTF-8" standalone="no"?>
<!DOCTYPE svg PUBLIC "-//W3C//DTD SVG 1.1//EN"
 "http://www.w3.org/Graphics/SVG/1.1/DTD/svg11.dtd">
<!-- Generated by graphviz version 2.43.0 (0)
 -->
<!-- Title: src/NexToque.h Pages: 1 -->
<svg width="331pt" height="196pt"
 viewBox="0.00 0.00 330.50 196.00" xmlns="http://www.w3.org/2000/svg" xmlns:xlink="http://www.w3.org/1999/xlink">
<g id="graph0" class="graph" transform="scale(1 1) rotate(0) translate(4 192)">
<title>src/NexToque.h</title>
<polygon fill="white" stroke="transparent" points="-4,4 -4,-192 326.5,-192 326.5,4 -4,4"/>
<!-- Node1 -->
<g id="node1" class="node">
<title>Node1</title>
<g id="a_node1"><a xlink:title="Componentes com suporte a eventos de toque.">
<polygon fill="#bfbfbf" stroke="black" points="147,-168.5 147,-187.5 238,-187.5 238,-168.5 147,-168.5"/>
<text text-anchor="middle" x="192.5" y="-175.5" font-family="Helvetica,sans-Serif" font-size="10.00">src/NexToque.h</text>
</a>
</g>
</g>
<!-- Node2 -->
<g id="node2" class="node">
<title>Node2</title>
<g id="a_node2"><a xlink:href="NexComponentes_8h.html" target="_top" xlink:title="Todos os componentes Nextion com API em português.">
<polygon fill="white" stroke="black" points="34.5,-112.5 34.5,-131.5 164.5,-131.5 164.5,-112.5 34.5,-112.5"/>
<text text-anchor="middle" x="99.5" y="-119.5" font-family="Helvetica,sans-Serif" font-size="10.00">src/NexComponentes.h</text>
</a>
</g>
</g>
<!-- Node1&#45;&gt;Node2 -->
<g id="edge1" class="edge">
<title>Node1&#45;&gt;Node2</title>
<path fill="none" stroke="midnightblue" d="M168.69,-163.18C151.58,-153.24 129.03,-140.15 114.4,-131.65"/>
<polygon fill="midnightblue" stroke="midnightblue" points="167.15,-166.33 177.56,-168.32 170.67,-160.28 167.15,-166.33"/>
</g>
<!-- Node5 -->
<g id="node5" class="node">
<title>Node5</title>
<g id="a_node5"><a xlink:href="NextionUI_8h.html" target="_top" xlink:title="Ponto único de inclusão da biblioteca NextionUI.">
<polygon fill="white" stroke="black" points="127.5,-0.5 127.5,-19.5 219.5,-19.5 219.5,-0.5 127.5,-0.5"/>
<text text-anchor="middle" x="173.5" y="-7.5" font-family="Helvetica,sans-Serif" font-size="10.00">src/NextionUI.h</text>
</a>
</g>
</g>
<!-- Node1&#45;&gt;Node5 -->
<g id="edge6" class="edge">
<title>Node1&#45;&gt;Node5</title>
<path fill="none" stroke="midnightblue" d="M190.32,-157.93C186.2,-121.92 177.42,-45.23 174.48,-19.57"/>
<polygon fill="midnightblue" stroke="midnightblue" points="186.86,-158.54 191.48,-168.08 193.82,-157.74 186.86,-158.54"/>
</g>
<!-- Node6 -->
<g id="node6" class="node">
<title>Node6</title>
<g id="a_node6"><a xlink:href="NexToque_8cpp.html" target="_top" xlink:title="Implementação de NexToque.">
<polygon fill="white" stroke="black" points="220.5,-112.5 220.5,-131.5 322.5,-131.5 322.5,-112.5 220.5,-112.5"/>
<text text-anchor="middle" x="271.5" y="-119.5" font-family="Helvetica,sans-Serif" font-size="10.00">src/NexToque.cpp</text>
</a>
</g>
</g>
<!-- Node1&#45;&gt;Node6 -->
<g id="edge7" class="edge">
<title>Node1&#45;&gt;Node6</title>
<path fill="none" stroke="midnightblue" d="M213.53,-162.62C227.97,-152.76 246.64,-139.99 258.84,-131.65"/>
<polygon fill="midnightblue" stroke="midnightblue" points="211.47,-159.79 205.19,-168.32 215.42,-165.57 211.47,-159.79"/>
</g>
<!-- Node3 -->
<g id="node3" class="node">
<title>Node3</title>
<g id="a_node3"><a xlink:href="NexDisplay_8h.html" target="_top" xlink:title="Ponto de entrada único para o display Nextion.">
<polygon fill="white" stroke="black" points="28.5,-56.5 28.5,-75.5 126.5,-75.5 126.5,-56.5 28.5,-56.5"/>
<text text-anchor="middle" x="77.5" y="-63.5" font-family="Helvetica,sans-Serif" font-size="10.00">src/NexDisplay.h</text>
</a>
</g>
</g>
<!-- Node2&#45;&gt;Node3 -->
<g id="edge2" class="edge">
<title>Node2&#45;&gt;Node3</title>
<path fill="none" stroke="midnightblue" d="M92.04,-102.69C88.33,-93.59 84.02,-83.01 81.07,-75.75"/>
<polygon fill="midnightblue" stroke="midnightblue" points="88.85,-104.14 95.87,-112.08 95.34,-101.5 88.85,-104.14"/>
</g>
<!-- Node2&#45;&gt;Node5 -->
<g id="edge5" class="edge">
<title>Node2&#45;&gt;Node5</title>
<path fill="none" stroke="midnightblue" d="M113.65,-104.51C120.54,-96.18 128.77,-85.79 135.5,-76 148.82,-56.61 162.2,-32.35 168.96,-19.66"/>
<polygon fill="midnightblue" stroke="midnightblue" points="110.83,-102.42 107.07,-112.33 116.18,-106.93 110.83,-102.42"/>
</g>
<!-- Node4 -->
<g id="node4" class="node">
<title>Node4</title>
<g id="a_node4"><a xlink:href="NexDisplay_8cpp.html" target="_top" xlink:title="Implementação do NexDisplay.">
<polygon fill="white" stroke="black" points="0,-0.5 0,-19.5 109,-19.5 109,-0.5 0,-0.5"/>
<text text-anchor="middle" x="54.5" y="-7.5" font-family="Helvetica,sans-Serif" font-size="10.00">src/NexDisplay.cpp</text>
</a>
</g>
</g>
<!-- Node3&#45;&gt;Node4 -->
<g id="edge3" class="edge">
<title>Node3&#45;&gt;Node4</title>
<path fill="none" stroke="midnightblue" d="M69.7,-46.69C65.82,-37.59 61.32,-27.01 58.23,-19.75"/>
<polygon fill="midnightblue" stroke="midnightblue" points="66.56,-48.25 73.7,-56.08 73,-45.51 66.56,-48.25"/>
</g>
<!-- Node3&#45;&gt;Node5 -->
<g id="edge4" class="edge">
<title>Node3&#45;&gt;Node5</title>
<path fill="none" stroke="midnightblue" d="M102.07,-51.18C119.74,-41.24 143.01,-28.15 158.11,-19.65"/>
<polygon fill="midnightblue" stroke="midnightblue" points="99.92,-48.37 92.92,-56.32 103.36,-54.47 99.92,-48.37"/>
</g>
</g>
</svg>
