<?xml version="1.0" encoding="UTF-8" standalone="no"?>
<!DOCTYPE svg PUBLIC "-//W3C//DTD SVG 1.1//EN"
 "http://www.w3.org/Graphics/SVG/1.1/DTD/svg11.dtd">
<!-- Generated by graphviz version 2.43.0 (0)
 -->
<!-- Title: src/NexToque.h Pages: 1 -->
<svg width="174pt" height="252pt"
 viewBox="0.00 0.00 173.50 252.00" xmlns="http://www.w3.org/2000/svg" xmlns:xlink="http://www.w3.org/1999/xlink">
<g id="graph0" class="graph" transform="scale(1 1) rotate(0) translate(4 248)">
<title>src/NexToque.h</title>
<polygon fill="white" stroke="transparent" points="-4,4 -4,-248 169.5,-248 169.5,4 -4,4"/>
<!-- Node1 -->
<g id="node1" class="node">
<title>Node1</title>
<g id="a_node1"><a xlink:title="Componentes com suporte a eventos de toque.">
<polygon fill="#bfbfbf" stroke="black" points="0,-224.5 0,-243.5 91,-243.5 91,-224.5 0,-224.5"/>
<text text-anchor="middle" x="45.5" y="-231.5" font-family="Helvetica,sans-Serif" font-size="10.00">src/NexToque.h</text>
</a>
</g>
</g>
<!-- Node2 -->
<g id="node2" class="node">
<title>Node2</title>
<g id="a_node2"><a xlink:href="NexObjeto_8h.html" target="_top" xlink:title="Classe base de todos os componentes Nextion.">
<polygon fill="white" stroke="black" points="7,-168.5 7,-187.5 84,-187.5 84,-168.5 7,-168.5"/>
<text text-anchor="middle" x="45.5" y="-175.5" font-family="Helvetica,sans-Serif" font-size="10.00">NexObjeto.h</text>
</a>
</g>
</g>
<!-- Node1&#45;&gt;Node2 -->
<g id="edge1" class="edge">
<title>Node1&#45;&gt;Node2</title>
<path fill="none" stroke="midnightblue" d="M45.5,-224.08C45.5,-217.01 45.5,-206.86 45.5,-197.99"/>
<polygon fill="midnightblue" stroke="midnightblue" points="49,-197.75 45.5,-187.75 42,-197.75 49,-197.75"/>
</g>
<!-- Node3 -->
<g id="node3" class="node">
<title>Node3</title>
<g id="a_node3"><a xlink:title=" ">
<polygon fill="white" stroke="#bfbfbf" points="32,-0.5 32,-19.5 95,-19.5 95,-0.5 32,-0.5"/>
<text text-anchor="middle" x="63.5" y="-7.5" font-family="Helvetica,sans-Serif" font-size="10.00">Arduino.h</text>
</a>
</g>
</g>
<!-- Node2&#45;&gt;Node3 -->
<g id="edge2" class="edge">
<title>Node2&#45;&gt;Node3</title>
<path fill="none" stroke="midnightblue" d="M39.89,-168.48C27.33,-148.27 -0.64,-96.13 16.5,-56 21.65,-43.95 31.78,-33.58 41.33,-25.84"/>
<polygon fill="midnightblue" stroke="midnightblue" points="43.54,-28.55 49.42,-19.74 39.33,-22.96 43.54,-28.55"/>
</g>
<!-- Node4 -->
<g id="node4" class="node">
<title>Node4</title>
<g id="a_node4"><a xlink:href="NexConfig_8h.html" target="_top" xlink:title="Configuração global da biblioteca NextionUI.">
<polygon fill="white" stroke="black" points="25.5,-56.5 25.5,-75.5 101.5,-75.5 101.5,-56.5 25.5,-56.5"/>
<text text-anchor="middle" x="63.5" y="-63.5" font-family="Helvetica,sans-Serif" font-size="10.00">NexConfig.h</text>
</a>
</g>
</g>
<!-- Node2&#45;&gt;Node4 -->
<g id="edge3" class="edge">
<title>Node2&#45;&gt;Node4</title>
<path fill="none" stroke="midnightblue" d="M46.91,-168.37C49.82,-150.62 56.52,-109.67 60.46,-85.6"/>
<polygon fill="midnightblue" stroke="midnightblue" points="63.93,-86.03 62.09,-75.59 57.03,-84.89 63.93,-86.03"/>
</g>
<!-- Node5 -->
<g id="node5" class="node">
<title>Node5</title>
<g id="a_node5"><a xlink:href="NexHardware_8h.html" target="_top" xlink:title="Camada de hardware da biblioteca NextionUI.">
<polygon fill="white" stroke="black" points="73.5,-112.5 73.5,-131.5 165.5,-131.5 165.5,-112.5 73.5,-112.5"/>
<text text-anchor="middle" x="119.5" y="-119.5" font-family="Helvetica,sans-Serif" font-size="10.00">NexHardware.h</text>
</a>
</g>
</g>
<!-- Node2&#45;&gt;Node5 -->
<g id="edge5" class="edge">
<title>Node2&#45;&gt;Node5</title>
<path fill="none" stroke="midnightblue" d="M57.39,-168.32C68.65,-160.11 85.79,-147.6 99.21,-137.81"/>
<polygon fill="midnightblue" stroke="midnightblue" points="101.38,-140.56 107.39,-131.83 97.25,-134.9 101.38,-140.56"/>
</g>
<!-- Node4&#45;&gt;Node3 -->
<g id="edge4" class="edge">
<title>Node4&#45;&gt;Node3</title>
<path fill="none" stroke="midnightblue" d="M63.5,-56.08C63.5,-49.01 63.5,-38.86 63.5,-29.99"/>
<polygon fill="midnightblue" stroke="midnightblue" points="67,-29.75 63.5,-19.75 60,-29.75 67,-29.75"/>
</g>
<!-- Node5&#45;&gt;Node3 -->
<g id="edge6" class="edge">
<title>Node5&#45;&gt;Node3</title>
<path fill="none" stroke="midnightblue" d="M120.04,-112.47C120.5,-99.53 119.93,-74.46 110.5,-56 104.46,-44.17 94.05,-33.72 84.57,-25.87"/>
<polygon fill="midnightblue" stroke="midnightblue" points="86.64,-23.05 76.6,-19.68 82.35,-28.58 86.64,-23.05"/>
</g>
<!-- Node5&#45;&gt;Node4 -->
<g id="edge7" class="edge">
<title>Node5&#45;&gt;Node4</title>
<path fill="none" stroke="midnightblue" d="M110.5,-112.32C102.31,-104.42 89.99,-92.55 80.03,-82.94"/>
<polygon fill="midnightblue" stroke="midnightblue" points="82.29,-80.26 72.66,-75.83 77.43,-85.29 82.29,-80.26"/>
</g>
</g>
</svg>
