<?xml version="1.0" encoding="UTF-8" standalone="no"?>
<!DOCTYPE svg PUBLIC "-//W3C//DTD SVG 1.1//EN"
 "http://www.w3.org/Graphics/SVG/1.1/DTD/svg11.dtd">
<!-- Generated by graphviz version 2.43.0 (0)
 -->
<!-- Title: src/NextionUI.h Pages: 1 -->
<svg width="330pt" height="420pt"
 viewBox="0.00 0.00 329.84 420.00" xmlns="http://www.w3.org/2000/svg" xmlns:xlink="http://www.w3.org/1999/xlink">
<g id="graph0" class="graph" transform="scale(1 1) rotate(0) translate(4 416)">
<title>src/NextionUI.h</title>
<polygon fill="white" stroke="transparent" points="-4,4 -4,-416 325.84,-416 325.84,4 -4,4"/>
<!-- Node1 -->
<g id="node1" class="node">
<title>Node1</title>
<g id="a_node1"><a xlink:title="Ponto único de inclusão da biblioteca NextionUI.">
<polygon fill="#bfbfbf" stroke="black" points="131,-392.5 131,-411.5 223,-411.5 223,-392.5 131,-392.5"/>
<text text-anchor="middle" x="177" y="-399.5" font-family="Helvetica,sans-Serif" font-size="10.00">src/NextionUI.h</text>
</a>
</g>
</g>
<!-- Node2 -->
<g id="node2" class="node">
<title>Node2</title>
<g id="a_node2"><a xlink:href="NexConfig_8h.html" target="_top" xlink:title="Configuração global da biblioteca NextionUI.">
<polygon fill="white" stroke="black" points="82,-56.5 82,-75.5 158,-75.5 158,-56.5 82,-56.5"/>
<text text-anchor="middle" x="120" y="-63.5" font-family="Helvetica,sans-Serif" font-size="10.00">NexConfig.h</text>
</a>
</g>
</g>
<!-- Node1&#45;&gt;Node2 -->
<g id="edge1" class="edge">
<title>Node1&#45;&gt;Node2</title>
<path fill="none" stroke="midnightblue" d="M168.83,-392.38C153.07,-374.81 120,-332.94 120,-291 120,-291 120,-291 120,-177 120,-144.95 120,-107.64 120,-85.75"/>
<polygon fill="midnightblue" stroke="midnightblue" points="123.5,-85.56 120,-75.56 116.5,-85.56 123.5,-85.56"/>
</g>
<!-- Node4 -->
<g id="node4" class="node">
<title>Node4</title>
<g id="a_node4"><a xlink:href="NexHardware_8h.html" target="_top" xlink:title="Camada de hardware da biblioteca NextionUI.">
<polygon fill="white" stroke="black" points="0,-112.5 0,-131.5 92,-131.5 92,-112.5 0,-112.5"/>
<text text-anchor="middle" x="46" y="-119.5" font-family="Helvetica,sans-Serif" font-size="10.00">NexHardware.h</text>
</a>
</g>
</g>
<!-- Node1&#45;&gt;Node4 -->
<g id="edge3" class="edge">
<title>Node1&#45;&gt;Node4</title>
<path fill="none" stroke="midnightblue" d="M156.8,-392.49C124.3,-377.29 64,-342.2 64,-291 64,-291 64,-291 64,-233 64,-200.54 56.27,-163.38 50.94,-141.63"/>
<polygon fill="midnightblue" stroke="midnightblue" points="54.29,-140.59 48.43,-131.76 47.51,-142.32 54.29,-140.59"/>
</g>
<!-- Node5 -->
<g id="node5" class="node">
<title>Node5</title>
<g id="a_node5"><a xlink:href="NexObjeto_8h.html" target="_top" xlink:title="Classe base de todos os componentes Nextion.">
<polygon fill="white" stroke="black" points="148.5,-168.5 148.5,-187.5 225.5,-187.5 225.5,-168.5 148.5,-168.5"/>
<text text-anchor="middle" x="187" y="-175.5" font-family="Helvetica,sans-Serif" font-size="10.00">NexObjeto.h</text>
</a>
</g>
</g>
<!-- Node1&#45;&gt;Node5 -->
<g id="edge6" class="edge">
<title>Node1&#45;&gt;Node5</title>
<path fill="none" stroke="midnightblue" d="M176.96,-392.49C176.9,-372.72 176.98,-322.18 179,-280 180.38,-251.23 183.27,-217.93 185.17,-197.68"/>
<polygon fill="midnightblue" stroke="midnightblue" points="188.66,-197.92 186.13,-187.64 181.69,-197.25 188.66,-197.92"/>
</g>
<!-- Node6 -->
<g id="node6" class="node">
<title>Node6</title>
<g id="a_node6"><a xlink:href="NexToque_8h.html" target="_top" xlink:title="Componentes com suporte a eventos de toque.">
<polygon fill="white" stroke="black" points="208,-224.5 208,-243.5 282,-243.5 282,-224.5 208,-224.5"/>
<text text-anchor="middle" x="245" y="-231.5" font-family="Helvetica,sans-Serif" font-size="10.00">NexToque.h</text>
</a>
</g>
</g>
<!-- Node1&#45;&gt;Node6 -->
<g id="edge10" class="edge">
<title>Node1&#45;&gt;Node6</title>
<path fill="none" stroke="midnightblue" d="M223.24,-399C254.12,-394.96 292.68,-384.12 313,-356 320.41,-345.75 328.77,-312.22 311,-280 303.27,-265.99 289.1,-255.47 275.87,-248.13"/>
<polygon fill="midnightblue" stroke="midnightblue" points="277.45,-245.01 266.95,-243.56 274.25,-251.24 277.45,-245.01"/>
</g>
<!-- Node7 -->
<g id="node7" class="node">
<title>Node7</title>
<g id="a_node7"><a xlink:href="NexComponentes_8h.html" target="_top" xlink:title="Todos os componentes Nextion com API em português.">
<polygon fill="white" stroke="black" points="188.5,-280.5 188.5,-299.5 301.5,-299.5 301.5,-280.5 188.5,-280.5"/>
<text text-anchor="middle" x="245" y="-287.5" font-family="Helvetica,sans-Serif" font-size="10.00">NexComponentes.h</text>
</a>
</g>
</g>
<!-- Node1&#45;&gt;Node7 -->
<g id="edge12" class="edge">
<title>Node1&#45;&gt;Node7</title>
<path fill="none" stroke="midnightblue" d="M181.76,-392.49C188.81,-379.98 202.53,-355.95 215,-336 220.86,-326.63 227.67,-316.36 233.32,-308"/>
<polygon fill="midnightblue" stroke="midnightblue" points="236.36,-309.76 239.1,-299.53 230.57,-305.82 236.36,-309.76"/>
</g>
<!-- Node8 -->
<g id="node8" class="node">
<title>Node8</title>
<g id="a_node8"><a xlink:href="NexDisplay_8h.html" target="_top" xlink:title="Ponto de entrada único para o display Nextion.">
<polygon fill="white" stroke="black" points="224,-336.5 224,-355.5 304,-355.5 304,-336.5 224,-336.5"/>
<text text-anchor="middle" x="264" y="-343.5" font-family="Helvetica,sans-Serif" font-size="10.00">NexDisplay.h</text>
</a>
</g>
</g>
<!-- Node1&#45;&gt;Node8 -->
<g id="edge14" class="edge">
<title>Node1&#45;&gt;Node8</title>
<path fill="none" stroke="midnightblue" d="M190.98,-392.32C204.55,-383.9 225.38,-370.97 241.32,-361.07"/>
<polygon fill="midnightblue" stroke="midnightblue" points="243.41,-363.9 250.06,-355.65 239.71,-357.95 243.41,-363.9"/>
</g>
<!-- Node3 -->
<g id="node3" class="node">
<title>Node3</title>
<g id="a_node3"><a xlink:title=" ">
<polygon fill="white" stroke="#bfbfbf" points="88.5,-0.5 88.5,-19.5 151.5,-19.5 151.5,-0.5 88.5,-0.5"/>
<text text-anchor="middle" x="120" y="-7.5" font-family="Helvetica,sans-Serif" font-size="10.00">Arduino.h</text>
</a>
</g>
</g>
<!-- Node2&#45;&gt;Node3 -->
<g id="edge2" class="edge">
<title>Node2&#45;&gt;Node3</title>
<path fill="none" stroke="midnightblue" d="M120,-56.08C120,-49.01 120,-38.86 120,-29.99"/>
<polygon fill="midnightblue" stroke="midnightblue" points="123.5,-29.75 120,-19.75 116.5,-29.75 123.5,-29.75"/>
</g>
<!-- Node4&#45;&gt;Node2 -->
<g id="edge5" class="edge">
<title>Node4&#45;&gt;Node2</title>
<path fill="none" stroke="midnightblue" d="M57.89,-112.32C69.15,-104.11 86.29,-91.6 99.71,-81.81"/>
<polygon fill="midnightblue" stroke="midnightblue" points="101.88,-84.56 107.89,-75.83 97.75,-78.9 101.88,-84.56"/>
</g>
<!-- Node4&#45;&gt;Node3 -->
<g id="edge4" class="edge">
<title>Node4&#45;&gt;Node3</title>
<path fill="none" stroke="midnightblue" d="M48.31,-112.45C52.09,-99.46 60.43,-74.35 73,-56 80.7,-44.75 91.58,-34.11 100.94,-26"/>
<polygon fill="midnightblue" stroke="midnightblue" points="103.21,-28.67 108.65,-19.58 98.72,-23.29 103.21,-28.67"/>
</g>
<!-- Node5&#45;&gt;Node2 -->
<g id="edge8" class="edge">
<title>Node5&#45;&gt;Node2</title>
<path fill="none" stroke="midnightblue" d="M181.74,-168.37C170.73,-150.3 145.08,-108.18 130.54,-84.31"/>
<polygon fill="midnightblue" stroke="midnightblue" points="133.42,-82.31 125.23,-75.59 127.45,-85.95 133.42,-82.31"/>
</g>
<!-- Node5&#45;&gt;Node3 -->
<g id="edge7" class="edge">
<title>Node5&#45;&gt;Node3</title>
<path fill="none" stroke="midnightblue" d="M187.38,-168.2C187.92,-147.39 187.07,-94.04 167,-56 160.8,-44.25 150.39,-33.81 140.93,-25.94"/>
<polygon fill="midnightblue" stroke="midnightblue" points="143.03,-23.14 133,-19.73 138.71,-28.65 143.03,-23.14"/>
</g>
<!-- Node5&#45;&gt;Node4 -->
<g id="edge9" class="edge">
<title>Node5&#45;&gt;Node4</title>
<path fill="none" stroke="midnightblue" d="M164.66,-168.44C141.25,-159.48 104.26,-145.31 77.81,-135.18"/>
<polygon fill="midnightblue" stroke="midnightblue" points="78.83,-131.82 68.24,-131.52 76.32,-138.36 78.83,-131.82"/>
</g>
<!-- Node6&#45;&gt;Node5 -->
<g id="edge11" class="edge">
<title>Node6&#45;&gt;Node5</title>
<path fill="none" stroke="midnightblue" d="M235.68,-224.32C227.11,-216.34 214.19,-204.31 203.81,-194.65"/>
<polygon fill="midnightblue" stroke="midnightblue" points="206.19,-192.09 196.49,-187.83 201.42,-197.21 206.19,-192.09"/>
</g>
<!-- Node7&#45;&gt;Node6 -->
<g id="edge13" class="edge">
<title>Node7&#45;&gt;Node6</title>
<path fill="none" stroke="midnightblue" d="M245,-280.08C245,-273.01 245,-262.86 245,-253.99"/>
<polygon fill="midnightblue" stroke="midnightblue" points="248.5,-253.75 245,-243.75 241.5,-253.75 248.5,-253.75"/>
</g>
<!-- Node8&#45;&gt;Node7 -->
<g id="edge15" class="edge">
<title>Node8&#45;&gt;Node7</title>
<path fill="none" stroke="midnightblue" d="M260.86,-336.08C258.32,-328.85 254.64,-318.41 251.47,-309.4"/>
<polygon fill="midnightblue" stroke="midnightblue" points="254.7,-308.02 248.08,-299.75 248.1,-310.35 254.7,-308.02"/>
</g>
</g>
</svg>
