<?xml version="1.0" encoding="UTF-8" standalone="no"?>
<!DOCTYPE svg PUBLIC "-//W3C//DTD SVG 1.1//EN"
 "http://www.w3.org/Graphics/SVG/1.1/DTD/svg11.dtd">
<!-- Generated by graphviz version 2.43.0 (0)
 -->
<!-- Title: src/NexToque.cpp Pages: 1 -->
<svg width="179pt" height="308pt"
 viewBox="0.00 0.00 179.00 308.00" xmlns="http://www.w3.org/2000/svg" xmlns:xlink="http://www.w3.org/1999/xlink">
<g id="graph0" class="graph" transform="scale(1 1) rotate(0) translate(4 304)">
<title>src/NexToque.cpp</title>
<polygon fill="white" stroke="transparent" points="-4,4 -4,-304 175,-304 175,4 -4,4"/>
<!-- Node1 -->
<g id="node1" class="node">
<title>Node1</title>
<g id="a_node1"><a xlink:title="Implementação de NexToque.">
<polygon fill="#bfbfbf" stroke="black" points="0,-280.5 0,-299.5 102,-299.5 102,-280.5 0,-280.5"/>
<text text-anchor="middle" x="51" y="-287.5" font-family="Helvetica,sans-Serif" font-size="10.00">src/NexToque.cpp</text>
</a>
</g>
</g>
<!-- Node2 -->
<g id="node2" class="node">
<title>Node2</title>
<g id="a_node2"><a xlink:href="NexToque_8h.html" target="_top" xlink:title="Componentes com suporte a eventos de toque.">
<polygon fill="white" stroke="black" points="14,-224.5 14,-243.5 88,-243.5 88,-224.5 14,-224.5"/>
<text text-anchor="middle" x="51" y="-231.5" font-family="Helvetica,sans-Serif" font-size="10.00">NexToque.h</text>
</a>
</g>
</g>
<!-- Node1&#45;&gt;Node2 -->
<g id="edge1" class="edge">
<title>Node1&#45;&gt;Node2</title>
<path fill="none" stroke="midnightblue" d="M51,-280.08C51,-273.01 51,-262.86 51,-253.99"/>
<polygon fill="midnightblue" stroke="midnightblue" points="54.5,-253.75 51,-243.75 47.5,-253.75 54.5,-253.75"/>
</g>
<!-- Node3 -->
<g id="node3" class="node">
<title>Node3</title>
<g id="a_node3"><a xlink:href="NexObjeto_8h.html" target="_top" xlink:title="Classe base de todos os componentes Nextion.">
<polygon fill="white" stroke="black" points="12.5,-168.5 12.5,-187.5 89.5,-187.5 89.5,-168.5 12.5,-168.5"/>
<text text-anchor="middle" x="51" y="-175.5" font-family="Helvetica,sans-Serif" font-size="10.00">NexObjeto.h</text>
</a>
</g>
</g>
<!-- Node2&#45;&gt;Node3 -->
<g id="edge2" class="edge">
<title>Node2&#45;&gt;Node3</title>
<path fill="none" stroke="midnightblue" d="M51,-224.08C51,-217.01 51,-206.86 51,-197.99"/>
<polygon fill="midnightblue" stroke="midnightblue" points="54.5,-197.75 51,-187.75 47.5,-197.75 54.5,-197.75"/>
</g>
<!-- Node4 -->
<g id="node4" class="node">
<title>Node4</title>
<g id="a_node4"><a xlink:title=" ">
<polygon fill="white" stroke="#bfbfbf" points="37.5,-0.5 37.5,-19.5 100.5,-19.5 100.5,-0.5 37.5,-0.5"/>
<text text-anchor="middle" x="69" y="-7.5" font-family="Helvetica,sans-Serif" font-size="10.00">Arduino.h</text>
</a>
</g>
</g>
<!-- Node3&#45;&gt;Node4 -->
<g id="edge3" class="edge">
<title>Node3&#45;&gt;Node4</title>
<path fill="none" stroke="midnightblue" d="M45.39,-168.48C32.83,-148.27 4.86,-96.13 22,-56 27.15,-43.95 37.28,-33.58 46.83,-25.84"/>
<polygon fill="midnightblue" stroke="midnightblue" points="49.04,-28.55 54.92,-19.74 44.83,-22.96 49.04,-28.55"/>
</g>
<!-- Node5 -->
<g id="node5" class="node">
<title>Node5</title>
<g id="a_node5"><a xlink:href="NexConfig_8h.html" target="_top" xlink:title="Configuração global da biblioteca NextionUI.">
<polygon fill="white" stroke="black" points="31,-56.5 31,-75.5 107,-75.5 107,-56.5 31,-56.5"/>
<text text-anchor="middle" x="69" y="-63.5" font-family="Helvetica,sans-Serif" font-size="10.00">NexConfig.h</text>
</a>
</g>
</g>
<!-- Node3&#45;&gt;Node5 -->
<g id="edge4" class="edge">
<title>Node3&#45;&gt;Node5</title>
<path fill="none" stroke="midnightblue" d="M52.41,-168.37C55.32,-150.62 62.02,-109.67 65.96,-85.6"/>
<polygon fill="midnightblue" stroke="midnightblue" points="69.43,-86.03 67.59,-75.59 62.53,-84.89 69.43,-86.03"/>
</g>
<!-- Node6 -->
<g id="node6" class="node">
<title>Node6</title>
<g id="a_node6"><a xlink:href="NexHardware_8h.html" target="_top" xlink:title="Camada de hardware da biblioteca NextionUI.">
<polygon fill="white" stroke="black" points="79,-112.5 79,-131.5 171,-131.5 171,-112.5 79,-112.5"/>
<text text-anchor="middle" x="125" y="-119.5" font-family="Helvetica,sans-Serif" font-size="10.00">NexHardware.h</text>
</a>
</g>
</g>
<!-- Node3&#45;&gt;Node6 -->
<g id="edge6" class="edge">
<title>Node3&#45;&gt;Node6</title>
<path fill="none" stroke="midnightblue" d="M62.89,-168.32C74.15,-160.11 91.29,-147.6 104.71,-137.81"/>
<polygon fill="midnightblue" stroke="midnightblue" points="106.88,-140.56 112.89,-131.83 102.75,-134.9 106.88,-140.56"/>
</g>
<!-- Node5&#45;&gt;Node4 -->
<g id="edge5" class="edge">
<title>Node5&#45;&gt;Node4</title>
<path fill="none" stroke="midnightblue" d="M69,-56.08C69,-49.01 69,-38.86 69,-29.99"/>
<polygon fill="midnightblue" stroke="midnightblue" points="72.5,-29.75 69,-19.75 65.5,-29.75 72.5,-29.75"/>
</g>
<!-- Node6&#45;&gt;Node4 -->
<g id="edge7" class="edge">
<title>Node6&#45;&gt;Node4</title>
<path fill="none" stroke="midnightblue" d="M125.54,-112.47C126,-99.53 125.43,-74.46 116,-56 109.96,-44.17 99.55,-33.72 90.07,-25.87"/>
<polygon fill="midnightblue" stroke="midnightblue" points="92.14,-23.05 82.1,-19.68 87.85,-28.58 92.14,-23.05"/>
</g>
<!-- Node6&#45;&gt;Node5 -->
<g id="edge8" class="edge">
<title>Node6&#45;&gt;Node5</title>
<path fill="none" stroke="midnightblue" d="M116,-112.32C107.81,-104.42 95.49,-92.55 85.53,-82.94"/>
<polygon fill="midnightblue" stroke="midnightblue" points="87.79,-80.26 78.16,-75.83 82.93,-85.29 87.79,-80.26"/>
</g>
</g>
</svg>
